<?xml version="1.0" encoding="UTF-8"?>
<svg viewBox="0 0 14 15" version="1.1" xmlns="http://www.w3.org/2000/svg" xmlns:xlink="http://www.w3.org/1999/xlink">
    <!-- Generator: Sketch 50.2 (55047) - http://www.bohemiancoding.com/sketch -->
    <title>arrow-black</title>
    <desc>Created with Sketch.</desc>
    <defs></defs>
    <g id="Website" stroke="none" stroke-width="1" fill="none" fill-rule="evenodd">
        <g id="001-smileline-mobile-screen-main" transform="translate(-390.000000, -4721.000000)" fill="#FFDE49" fill-rule="nonzero">
            <g id="Group-5" transform="translate(70.000000, 4173.000000)">
                <g id="Group-4" transform="translate(0.000000, 530.000000)">
                    <path d="M333.648042,24.5529605 L327.456495,18.3614138 C327.215669,18.1204713 326.927099,18 326.591016,18 C326.261238,18 325.975936,18.1204713 325.734993,18.3614138 L325.021738,19.0746692 C324.780795,19.3030043 324.660324,19.5883064 324.660324,19.9306923 C324.660324,20.2730782 324.780795,20.5583804 325.021738,20.7867155 L327.808453,23.5828865 L321.112725,23.5828865 C320.783063,23.5828865 320.515155,23.7017235 320.309116,23.9395142 C320.103078,24.1773049 320,24.4642413 320,24.8002068 L320,26.0176438 C320,26.353726 320.103078,26.6405457 320.309116,26.8783363 C320.515155,27.116127 320.783063,27.234964 321.112725,27.234964 L327.808337,27.234964 L325.021621,30.0217962 C324.780679,30.2625053 324.660207,30.5510761 324.660207,30.8871582 C324.660207,31.2232404 324.780679,31.5118112 325.021621,31.752637 L325.734876,32.4658923 C325.982239,32.7005311 326.267542,32.8178506 326.5909,32.8178506 C326.920678,32.8178506 327.209249,32.7005311 327.456378,32.4658923 L333.647925,26.2743457 C333.882564,26.0397068 334,25.7513696 334,25.4088669 C334,25.0601773 333.882564,24.7747584 333.648042,24.5529605 Z" id="arrow-black"></path>
                </g>
            </g>
        </g>
    </g>
</svg>