<?xml version="1.0" encoding="UTF-8"?>
<svg viewBox="0 0 100 105" version="1.1" xmlns="http://www.w3.org/2000/svg" xmlns:xlink="http://www.w3.org/1999/xlink">
    <!-- Generator: Sketch 50.2 (55047) - http://www.bohemiancoding.com/sketch -->
    <title>smile-line-logo</title>
    <desc>Created with Sketch.</desc>
    <defs>
        <polygon id="path-1" points="0.0881278935 0.0655653935 13.9972164 0.0655653935 13.9972164 12.7947957 0.0881278935 12.7947957"></polygon>
    </defs>
    <g id="Website" stroke="none" stroke-width="1" fill="none" fill-rule="evenodd">
        <g id="02-smile-line-tour-page" transform="translate(-46.000000, -18.000000)">
            <g id="smile-line-logo" transform="translate(46.000000, 18.000000)">
                <path d="M1.3305793,50.242537 C1.13767053,50.242537 0.958629772,50.2214379 0.793451641,50.1792392 C0.62827351,50.1370404 0.492636568,50.0785658 0.386536747,50.0038136 C0.345543634,49.9724659 0.316004923,49.9399131 0.297919726,49.906154 C0.279834529,49.872395 0.270792066,49.8289912 0.270792066,49.7759413 C0.270792066,49.7036005 0.292493977,49.6409061 0.335898449,49.5878562 C0.379302922,49.5348063 0.429940713,49.5082817 0.487813343,49.5082817 C0.519161017,49.5082817 0.54930256,49.5131044 0.578238875,49.5227498 C0.60717519,49.5323952 0.643345041,49.5504802 0.686749513,49.5770051 C0.785615256,49.6324664 0.883876684,49.6722532 0.981536747,49.6963668 C1.07919681,49.7204804 1.18951486,49.732537 1.31249419,49.732537 C1.45476441,49.732537 1.56267113,49.7114379 1.6362176,49.6692392 C1.70976407,49.6270404 1.74653675,49.5649488 1.74653675,49.4829626 C1.74653675,49.4275013 1.71217539,49.3798776 1.64345164,49.3400902 C1.57472789,49.3003028 1.4439136,49.2611188 1.25100483,49.222537 C1.01228023,49.1718985 0.825402671,49.1116154 0.690366534,49.041686 C0.555330398,48.9717565 0.460685955,48.8891687 0.406430364,48.79392 C0.352174774,48.6986713 0.325047385,48.5835306 0.325047385,48.4484945 C0.325047385,48.2941675 0.37086253,48.1543107 0.462494194,48.02892 C0.554125858,47.9035293 0.680117506,47.8052679 0.840472917,47.7341328 C1.00082833,47.6629977 1.18107475,47.6274306 1.3812176,47.6274306 C1.55724685,47.6274306 1.71398287,47.6467212 1.85143036,47.685303 C1.98887786,47.7238847 2.11426668,47.7841678 2.22760058,47.866154 C2.27100505,47.8975017 2.30174942,47.9306574 2.31983462,47.9656221 C2.33791982,48.0005868 2.34696228,48.0433878 2.34696228,48.0940264 C2.34696228,48.1663672 2.3258632,48.2290616 2.28366441,48.2821115 C2.24146561,48.3351614 2.19143065,48.361686 2.13355802,48.361686 C2.10221035,48.361686 2.07327447,48.3574661 2.04674951,48.3490264 C2.02022456,48.3405866 1.98284905,48.3218989 1.93462185,48.2929626 C1.92256506,48.2857285 1.8882037,48.2670407 1.83153675,48.2368987 C1.7748698,48.2067567 1.7085584,48.1826435 1.63260058,48.1645583 C1.55664275,48.1464731 1.47405492,48.1374306 1.38483462,48.1374306 C1.26185528,48.1374306 1.16299102,48.160941 1.08823887,48.2079626 C1.01348673,48.2549841 0.976111215,48.3170756 0.976111215,48.3942392 C0.976111215,48.440055 0.989373494,48.4774305 1.01589845,48.5063668 C1.0424234,48.5353031 1.09185553,48.5636362 1.16419632,48.5913668 C1.23653711,48.6190974 1.343841,48.6474305 1.48611122,48.6763668 C1.71760173,48.7270054 1.89965665,48.7878913 2.03228143,48.8590264 C2.1649062,48.9301615 2.25894782,49.0127493 2.31440909,49.1067923 C2.36987036,49.2008354 2.39760058,49.3117562 2.39760058,49.4395583 C2.39760058,49.598708 2.35299109,49.7391676 2.26377079,49.8609413 C2.17455049,49.9827149 2.0497645,50.0767566 1.88940909,50.1430689 C1.72905368,50.2093813 1.54277894,50.242537 1.3305793,50.242537 Z M3.10291973,50.231686 C3.00164262,50.231686 2.92146612,50.2021472 2.86238781,50.1430689 C2.8033095,50.0839906 2.77377079,50.0038141 2.77377079,49.902537 L2.77377079,47.9674306 C2.77377079,47.8685649 2.8033095,47.7895941 2.86238781,47.7305157 C2.92146612,47.6714374 3.00164262,47.6418987 3.10291973,47.6418987 C3.20660819,47.6418987 3.28859318,47.6714374 3.34887717,47.7305157 C3.40916116,47.7895941 3.4393027,47.8685649 3.4393027,47.9674306 L3.4393027,49.902537 C3.4393027,50.0038141 3.40916116,50.0839906 3.34887717,50.1430689 C3.28859318,50.2021472 3.20660819,50.231686 3.10291973,50.231686 Z M5.86270696,47.6418987 C5.95433862,47.6418987 6.02969248,47.6720403 6.08877079,47.7323243 C6.1478491,47.7926082 6.17738781,47.8709763 6.17738781,47.9674306 L6.17738781,49.902537 C6.17738781,50.0014028 6.14845193,50.0809764 6.0905793,50.1412604 C6.03270667,50.2015444 5.95795565,50.231686 5.86632398,50.231686 C5.7578128,50.231686 5.6758278,50.1955161 5.62036653,50.1231753 L4.52079207,48.7523243 L4.52079207,49.902537 C4.52079207,50.0014028 4.49306185,50.0809764 4.43760058,50.1412604 C4.38213931,50.2015444 4.30738828,50.231686 4.21334526,50.231686 C4.12171359,50.231686 4.04696257,50.2015444 3.98908994,50.1412604 C3.93121731,50.0809764 3.90228143,50.0014028 3.90228143,49.902537 L3.90228143,47.9674306 C3.90228143,47.8709763 3.93121731,47.7926082 3.98908994,47.7323243 C4.04696257,47.6720403 4.12171359,47.6418987 4.21334526,47.6418987 C4.31703372,47.6418987 4.39781305,47.6780686 4.45568568,47.7504094 L5.55526015,49.1176434 L5.55526015,47.9674306 C5.55526015,47.8685649 5.5835932,47.7895941 5.64026015,47.7305157 C5.6969271,47.6714374 5.7710753,47.6418987 5.86270696,47.6418987 Z M7.84845164,50.242537 C7.59284753,50.242537 7.36919728,50.1894879 7.17749419,50.0833881 C6.98579111,49.9772883 6.83749472,49.8253749 6.73260058,49.6276434 C6.62770644,49.4299119 6.57526015,49.1984249 6.57526015,48.9331753 C6.57526015,48.6703371 6.62770644,48.4400557 6.73260058,48.2423243 C6.83749472,48.0445928 6.98579111,47.8926794 7.17749419,47.7865796 C7.36919728,47.6804798 7.59284753,47.6274306 7.84845164,47.6274306 C8.15469431,47.6274306 8.42355687,47.70821 8.65504739,47.8697711 C8.6960405,47.8987074 8.72557921,47.9300546 8.74366441,47.9638136 C8.7617496,47.9975727 8.77079207,48.0409765 8.77079207,48.0940264 C8.77079207,48.1687785 8.74969299,48.2320758 8.70749419,48.28392 C8.6652954,48.3357642 8.61405478,48.361686 8.55377079,48.361686 C8.5176004,48.361686 8.48504753,48.3562605 8.45611122,48.3454094 C8.4271749,48.3345582 8.39341637,48.3170762 8.35483462,48.2929626 C8.27043703,48.242324 8.19086336,48.2061542 8.11611122,48.1844519 C8.04135907,48.1627497 7.96419672,48.1518987 7.88462185,48.1518987 C7.67001085,48.1518987 7.51026068,48.2164016 7.40536653,48.3454094 C7.30047239,48.4744171 7.24802611,48.6703371 7.24802611,48.9331753 C7.24802611,49.1984249 7.30047239,49.3955506 7.40536653,49.5245583 C7.51026068,49.653566 7.67001085,49.7180689 7.88462185,49.7180689 C7.95696264,49.7180689 8.02689102,49.7066152 8.09440909,49.6837072 C8.16192716,49.6607993 8.2487348,49.6252323 8.35483462,49.5770051 C8.40547317,49.5504802 8.44284868,49.5323952 8.46696228,49.5227498 C8.49107587,49.5131044 8.52001176,49.5082817 8.55377079,49.5082817 C8.61405478,49.5082817 8.6652954,49.5342034 8.70749419,49.5860477 C8.74969299,49.6378919 8.77079207,49.7011891 8.77079207,49.7759413 C8.77079207,49.8265798 8.7617496,49.8693808 8.74366441,49.9043455 C8.72557921,49.9393102 8.6960405,49.9712603 8.65504739,50.0001966 C8.42355687,50.1617577 8.15469431,50.242537 7.84845164,50.242537 Z M9.40015377,50.2099838 C9.30128803,50.2099838 9.22533134,50.1834593 9.17228143,50.1304094 C9.11923152,50.0773595 9.09270696,50.0014028 9.09270696,49.902537 L9.09270696,47.9674306 C9.09270696,47.8685649 9.11923152,47.7926082 9.17228143,47.7395583 C9.22533134,47.6865084 9.30128803,47.6599838 9.40015377,47.6599838 L10.6516431,47.6599838 C10.7553316,47.6599838 10.8336996,47.6816857 10.8867495,47.7250902 C10.9397994,47.7684947 10.966324,47.8311891 10.966324,47.9131753 C10.966324,48.0867932 10.8614314,48.1736009 10.6516431,48.1736009 L9.74015377,48.1736009 L9.74015377,48.6582817 L10.5793027,48.6582817 C10.789091,48.6582817 10.8939836,48.7438837 10.8939836,48.9150902 C10.8939836,48.9970764 10.867459,49.0597708 10.8144091,49.1031753 C10.7613592,49.1465798 10.6829912,49.1682817 10.5793027,49.1682817 L9.74015377,49.1682817 L9.74015377,49.6963668 L10.6516431,49.6963668 C10.8614314,49.6963668 10.966324,49.7831745 10.966324,49.9567923 C10.966324,50.0387786 10.9397994,50.101473 10.8867495,50.1448774 C10.8336996,50.1882819 10.7553316,50.2099838 10.6516431,50.2099838 L9.40015377,50.2099838 Z" id="Since" fill="#9B9B9B"></path>
                <path d="M51.0405099,23.5635356 C67.6039634,23.8857366 81.5168606,37.1231872 82.8476962,53.9770304 C82.8876838,54.4922708 82.6144135,54.981449 82.1528306,55.2158815 C81.69112,55.4504417 81.1360196,55.383753 80.7429141,55.0481377 C79.0325151,53.5834137 75.5653417,52.6371241 71.9098558,52.6371241 C66.3067278,52.6371241 62.1197764,54.7642636 62.1197764,56.6662967 C62.1197764,57.371766 61.5483232,57.943858 60.8422151,57.943858 C60.136107,57.943858 59.5646539,57.371766 59.5646539,56.6662967 C59.5646539,54.9137382 56.0061349,52.9742726 51.0633783,52.6796669 L51.0633783,69.1049043 C51.0633783,69.8104818 50.4913946,70.3824655 49.785817,70.3824655 C49.0802395,70.3824655 48.5082558,69.8104818 48.5082558,69.1049043 L48.5082558,52.6780061 C43.5533624,52.9676292 39.9832175,54.9109276 39.9832175,56.6662967 C39.9832175,57.371766 39.4118922,57.943858 38.7056563,57.943858 C37.9995482,57.943858 37.4280951,57.371766 37.4280951,56.6662967 C37.4280951,54.7642636 33.2411437,52.6371241 27.6368659,52.6371241 C24.6837831,52.6371241 21.8891179,53.2309346 19.9689434,54.2665257 C19.5523307,54.491121 19.0445001,54.4667196 18.6502447,54.2022644 C18.2559893,53.9371704 18.0413591,53.4760986 18.0925893,53.0045508 C19.8387599,36.8509389 32.7681905,24.524645 48.5082558,23.4497049 L48.5082558,20.8945825 C48.5082558,20.1891132 49.079709,19.6170213 49.785817,19.6170213 C50.4919251,19.6170213 51.0633783,20.1891132 51.0633783,20.8945825 C51.0505175,22.6475668 51.0428947,23.5372179 51.0405099,23.5635356 Z M27.6368659,50.0820017 C31.4793868,50.0820017 34.7935083,50.9319632 37.0224694,52.3090464 C37.1366834,41.7432318 40.6630079,32.1856686 46.456748,26.398444 C33.6646552,28.1221296 23.3003121,38.0243789 20.9483219,51.0819489 C22.9070787,50.4306482 25.2064334,50.0820017 27.6368659,50.0820017 Z M49.7732969,50.0820017 C54.1397457,50.0820017 57.8381577,51.1724002 60.0063068,52.8342518 C60.0063068,41.9765145 56.0180162,31.9260681 49.785817,26.8480178 C43.5536179,31.9260681 39.5653273,41.9765145 39.5576619,52.8723232 C41.7417806,51.1621797 45.4266504,50.0820017 49.7732969,50.0820017 Z M71.9098558,50.0820017 C74.9627161,50.0820017 77.8023514,50.636591 79.990686,51.6196744 C77.7467775,37.9527077 66.4863529,27.3889372 52.9240184,26.220352 C58.8257125,31.9847082 62.4299682,41.6203305 62.5487814,52.2930769 C64.7772315,50.9250644 68.0815158,50.0820017 71.9098558,50.0820017 Z" id="Combined-Shape" fill="#FFDE49" fill-rule="nonzero"></path>
                <path d="M0.558510638,45.7180851 C0.411626396,45.7180851 0.292553191,45.5990119 0.292553191,45.4521277 C0.292553191,45.3052434 0.411626396,45.1861702 0.558510638,45.1861702 L10.7320001,45.1861702 C10.8788843,45.1861702 10.9979575,45.3052434 10.9979575,45.4521277 C10.9979575,45.5990119 10.8788843,45.7180851 10.7320001,45.7180851 L0.558510638,45.7180851 Z" id="Line-7" fill="#FFDE49" fill-rule="nonzero"></path>
                <path d="M0.558510638,52.5265957 C0.411626396,52.5265957 0.292553191,52.4075225 0.292553191,52.2606383 C0.292553191,52.1137541 0.411626396,51.9946809 0.558510638,51.9946809 L10.7320001,51.9946809 C10.8788843,51.9946809 10.9979575,52.1137541 10.9979575,52.2606383 C10.9979575,52.4075225 10.8788843,52.5265957 10.7320001,52.5265957 L0.558510638,52.5265957 Z" id="Line-7" fill="#FFDE49" fill-rule="nonzero"></path>
                <path d="M89.5478723,45.7180851 C89.4009881,45.7180851 89.2819149,45.5990119 89.2819149,45.4521277 C89.2819149,45.3052434 89.4009881,45.1861702 89.5478723,45.1861702 L99.7213618,45.1861702 C99.868246,45.1861702 99.9873192,45.3052434 99.9873192,45.4521277 C99.9873192,45.5990119 99.868246,45.7180851 99.7213618,45.7180851 L89.5478723,45.7180851 Z" id="Line-7" fill="#FFDE49" fill-rule="nonzero"></path>
                <path d="M89.5478723,52.5265957 C89.4009881,52.5265957 89.2819149,52.4075225 89.2819149,52.2606383 C89.2819149,52.1137541 89.4009881,51.9946809 89.5478723,51.9946809 L99.7213618,51.9946809 C99.868246,51.9946809 99.9873192,52.1137541 99.9873192,52.2606383 C99.9873192,52.4075225 99.868246,52.5265957 99.7213618,52.5265957 L89.5478723,52.5265957 Z" id="Line-7" fill="#FFDE49" fill-rule="nonzero"></path>
                <path d="M14.6768634,31.6258628 C13.7321412,33.1130966 12.6980266,34.0412159 11.1079861,34.3840515 L10.6559664,32.3573848 C11.6691898,32.13132 12.4093981,31.4224485 12.986765,30.5135712 C13.704103,29.3843466 13.6621007,28.5073559 12.8771412,28.0087159 C12.5328762,27.789908 12.1824537,27.7026047 11.8584201,27.7867193 C11.5569271,27.865886 11.3206366,28.0248791 10.9630671,28.4355561 L10.0455035,29.5149716 C9.38787037,30.2762911 8.7325463,30.7298501 8.02576389,30.8992888 C7.26015625,31.0699369 6.47805556,30.9017078 5.65175347,30.3768987 C3.90282986,29.2658166 3.49951968,27.1928594 4.84667245,25.0721823 C5.70398148,23.7225006 6.65552083,22.9546939 8.00157407,22.6307703 L8.4299537,24.6037795 C7.4441088,24.847327 6.8890625,25.538386 6.4779456,26.1855735 C5.83053819,27.2047344 6.08024306,28.0591846 6.75502894,28.4877841 C7.00297454,28.6452378 7.31700231,28.7288027 7.64114583,28.644798 C7.94263889,28.5657413 8.29526042,28.3451742 8.60412037,27.9807876 L9.50409144,26.9289705 C10.1966898,26.1125642 10.8031944,25.7054057 11.4512616,25.5372865 C12.2793229,25.3288142 13.1442188,25.5497112 14.0117535,26.1007992 C15.9121933,27.3078709 15.9802546,29.5740168 14.6768634,31.6258628 Z M25.2264045,19.9256782 L20.8217691,14.7836933 L22.002452,19.5725069 L20.8377124,20.5702269 L16.2746337,18.6789132 L20.6792691,23.8207882 L18.9568443,25.296147 L11.4001661,16.4742315 L13.0975214,15.0202037 L19.4883605,17.8162164 L17.6943559,11.0825417 L19.3919311,9.62862384 L26.9486094,18.4504294 L25.2264045,19.9256782 Z M30.2452963,16.8273148 L24.9676285,6.48001157 L26.9876979,5.44963542 L32.2652558,15.7969387 L30.2452963,16.8273148 Z M35.3921852,14.3338177 L32.1441528,3.1813235 L34.3213461,2.54733044 L37.0036667,11.7573825 L42.0630764,10.2840029 L42.6286782,12.2262251 L35.3921852,14.3338177 Z M45.4509039,11.8594306 L45.0723333,0.249418981 L52.7198333,4.39814816e-05 L52.7858056,2.02198264 L47.4047813,2.19746875 L47.4936238,4.92058218 L52.0756146,4.77115509 L52.1415868,6.7932037 L47.5595961,6.94252083 L47.6516273,9.76349306 L53.0325417,9.58800694 L53.0985139,11.6099456 L45.4509039,11.8594306 Z M60.398912,12.7663397 L64.0077025,1.72500868 L66.163235,2.42937211 L63.1829398,11.5479427 L68.1918808,13.1851534 L67.5633854,15.1080237 L60.398912,12.7663397 Z M69.8148854,16.4006065 L75.4234039,6.22878935 L77.4090579,7.32381829 L71.8006493,17.4955255 L69.8148854,16.4006065 Z M80.0823403,23.7704074 L81.3176701,15.3755521 L76.6209977,20.7396435 L74.9148461,19.2457025 L82.567294,10.5062523 L84.0891632,11.8388912 L82.8647187,20.2215417 L87.5507257,14.869875 L89.2567674,16.363706 L81.6044294,25.1031563 L80.0823403,23.7704074 Z M84.0140538,28.0736325 L93.772445,21.7722957 L97.9231973,28.2001892 L96.2237529,29.2976372 L93.3030527,24.7748015 L91.0142564,26.2527992 L93.5011892,30.1040376 L91.8016348,31.2014855 L89.3148119,27.3502471 L86.9437703,28.8813524 L89.8642506,33.4040781 L88.1648061,34.501526 L84.0140538,28.0736325 Z" id="Combined-Shape" fill="#1C4386"></path>
                <g id="Group-19" transform="translate(83.925926, 21.706730)">
                    <mask id="mask-2" fill="white">
                        <use xlink:href="#path-1"></use>
                    </mask>
                    <g id="Clip-18"></g>
                </g>
                <g id="Group" transform="translate(3.000000, 65.000000)">
                    <path d="M47.0854654,16.0692319 C43.874195,16.0692319 40.8748555,14.3392014 39.2595284,11.5551553 C38.9015719,10.9384852 39.1122106,10.1489411 39.7299117,9.79287218 C40.348905,9.43551316 41.1384769,9.64709034 41.4964334,10.2624703 C42.6504231,12.253102 44.7929931,13.4890224 47.0854654,13.4890224 C49.3792299,13.4890224 51.5217998,12.253102 52.6744973,10.2624703 C53.0311615,9.64580024 53.8181489,9.43164284 54.4397268,9.79287218 C55.0574279,10.1489411 55.2693588,10.9384852 54.9101101,11.5551553 C53.2973674,14.3392014 50.298028,16.0692319 47.0854654,16.0692319 Z" id="Combined-Shape" fill="#FFDE49" fill-rule="nonzero"></path>
                    <path d="M2.11786227,7.75208854 C1.20128819,7.35713484 0.540136574,6.62737211 0.209725694,5.69397512 C-0.106940972,4.79917187 -0.0641689815,3.86324595 0.332324074,3.03232581 C0.885721065,1.8726441 1.78063426,1.55586748 3.71109144,0.872725116 C5.64154861,0.189362847 6.53657176,-0.127303819 7.69614352,0.425983218 C8.52706366,0.822586227 9.14456366,1.51023669 9.46584838,2.41790451 C10.0812593,4.15671238 9.37249769,5.73102951 7.86943056,6.56513831 L7.52560532,5.59347743 C8.58555903,4.93056655 8.99920486,3.86346586 8.59644444,2.72566493 C8.38379398,2.12476794 7.93727199,1.63547396 7.38794329,1.38389988 C6.59616667,1.01676447 5.95986458,1.17003993 4.05502662,1.84427604 C2.1500787,2.5184022 1.54632292,2.80417187 1.16181481,3.58759201 C0.892978009,4.12867419 0.866479167,4.78553762 1.07923958,5.38632465 C1.31443056,6.05110475 1.80911227,6.59526562 2.46982407,6.83617419 C3.04862037,7.04860475 3.59695949,7.01275984 4.30011343,6.76393461 L4.99040278,6.51950752 L4.19862616,4.28216956 L5.05516551,3.97913715 L6.19087731,7.18802604 L4.7461956,7.69931076 C3.69789699,8.07040451 2.91777546,8.10196123 2.11786227,7.75208854" id="Fill-20" fill="#8A9FC1"></path>
                    <path d="M6.04377025,17.1865341 C4.94247396,15.5736233 5.25606192,13.6517425 6.8466522,12.5658397 L12.1894126,8.91801562 L12.7705179,9.7692772 L7.49493924,13.3711406 C6.28533854,14.1971128 6.01001447,15.5017135 6.80541956,16.6665631 C7.6007147,17.8313027 8.92356771,18.0613258 10.1332784,17.2353536 L15.4088571,13.6336001 L15.9900723,14.4848617 L10.6473119,18.1325758 C9.05672164,19.2183686 7.1449566,18.799445 6.04377025,17.1865341" id="Fill-23" fill="#8A9FC1"></path>
                    <polygon id="Fill-25" fill="#8A9FC1" points="11.6920041 23.9513698 18.5237575 17.1279728 19.2520909 17.8571858 12.4203374 24.6805828"></polygon>
                    <path d="M25.2186626,24.6474867 C25.0971638,23.9386152 24.6682344,23.4132564 24.0534832,22.9908142 L22.3212726,21.8001256 L17.8961858,28.2371453 L19.6283964,29.4279439 C20.2431476,29.850386 20.8870365,30.0628166 21.5924994,29.9224057 C22.5318339,29.7288872 23.3239404,28.5288524 23.992349,27.5565318 C24.6606476,26.5843212 25.374467,25.5938582 25.2186626,24.6474867 M21.7699647,30.9329902 C20.9590561,31.0831869 20.078327,30.8562425 19.2513652,30.2877818 L16.5245133,28.4131811 L21.9943802,20.4562714 L24.7212321,22.3307622 C25.5481939,22.8993328 26.0756418,23.6403108 26.2257286,24.4512193 C26.4843397,25.8466418 25.6021811,27.0340318 24.8416314,28.1404959 C24.0810816,29.2468501 23.1654971,30.674489 21.7699647,30.9329902" id="Fill-27" fill="#8A9FC1"></path>
                    <polygon id="Fill-29" fill="#8A9FC1" points="27.5423032 34.9434086 30.9002894 25.8898206 36.5205729 27.9743229 36.1999479 28.8389988 31.5459375 27.1128356 30.3621759 30.3045718 34.3295255 31.7759722 34.0089005 32.6407581 30.041441 31.1692477 28.8294213 34.4371817 33.4834317 36.1633449 33.1626968 37.0279109"></polygon>
                    <path d="M46.4342517,30.7914687 L44.4951082,35.8457106 L48.1015897,35.9322442 L46.4342517,30.7914687 Z M49.0987598,39.0356875 L48.3783432,36.8343044 L44.1618385,36.733037 L43.336636,38.8973657 L42.2384184,38.8708669 L46.0223652,29.3029155 L46.8901198,29.3236968 L50.1969774,39.0620764 L49.0987598,39.0356875 Z" id="Fill-31" fill="#8A9FC1"></path>
                    <path d="M60.3910712,36.2850747 C59.8841846,37.1445828 59.0770145,37.7086453 58.1096418,37.9188767 C57.1820723,38.1205318 56.2591209,37.9604392 55.484827,37.4626788 C54.4039821,36.7678814 54.202327,35.8403119 53.7673501,33.8393744 C53.3323733,31.8385469 53.1307182,30.9109774 53.8255156,29.8301325 C54.323276,29.0558385 55.083276,28.52982 56.02393,28.3251962 C57.8261811,27.9335411 59.2986811,28.8345017 59.9370723,30.4304797 L58.9300064,30.6492876 C58.4056372,29.5143455 57.3992309,28.9699647 56.2198675,29.2263767 C55.5970897,29.3617297 55.0555677,29.7431591 54.7369219,30.256423 C54.2731372,30.9956418 54.3452668,31.6461279 54.7744161,33.6204566 C55.2035654,35.5948953 55.411048,36.2297679 56.1398212,36.7096059 C56.6427494,37.0444149 57.2910365,37.1532691 57.9138142,37.0179161 C58.6027841,36.8681591 59.2048906,36.445827 59.526945,35.8206302 C59.8104057,35.2733906 59.8437216,34.7249416 59.6852784,33.9961684 L59.5298038,33.2805897 L57.2108802,33.7847274 L57.0178015,32.8968513 L60.3437911,32.1736858 L60.669364,33.6711453 C60.9056545,34.7577078 60.8386927,35.5355203 60.3910712,36.2850747" id="Fill-34" fill="#8A9FC1"></path>
                    <polygon id="Fill-36" fill="#8A9FC1" points="67.1122112 35.0337135 62.8451279 26.3720006 68.2223038 23.7231059 68.6299022 24.5502876 64.177327 26.7436441 65.6814936 29.7972784 69.4770955 27.9274057 69.8846939 28.7548073 66.0889821 30.6244601 67.6292135 33.7509936 72.0817888 31.5576372 72.4892772 32.3848189"></polygon>
                    <polygon id="Fill-38" fill="#8A9FC1" points="82.1638397 25.0430671 73.2159172 22.5576736 78.2933594 28.4043519 77.515217 29.0801273 71.1840828 21.789647 71.9212124 21.1494965 80.8513223 23.6144387 75.7916927 17.7883218 76.569945 17.1124363 82.9010793 24.4029167"></polygon>
                    <path d="M89.0565625,16.8379809 C88.5266956,17.6255793 87.7496528,18.148849 86.8461632,18.3254346 C85.5853241,18.5720608 84.7977257,18.0421939 83.0987211,16.8992251 C81.3998264,15.7560365 80.612228,15.2261696 80.3656019,13.9651105 C80.1890162,13.0617309 80.3809954,12.144827 80.9108623,11.3572286 C81.8797743,9.91716493 83.476522,9.43875637 85.1658507,10.1831429 L84.5753993,11.0606834 C83.452662,10.6158108 82.3496065,10.8706834 81.6759201,11.8720318 C81.32011,12.4009091 81.1820081,13.0433686 81.3072454,13.6343698 C81.4842708,14.48893 81.9976447,14.9161001 83.6741088,16.0440052 C85.350463,17.1720203 85.9395949,17.4865978 86.7977836,17.3285943 C87.3925231,17.2220492 87.9358044,16.852055 88.2915046,16.3231777 C88.9653009,15.3219392 88.8009201,14.1816094 87.9658218,13.3092367 L88.5412095,12.4541267 C89.8746181,13.7272807 90.0179977,15.4091325 89.0565625,16.8379809" id="Fill-40" fill="#8A9FC1"></path>
                    <polygon id="Fill-42" fill="#8A9FC1" points="90.4932616 5.23765625 94.2065081 6.68926505 93.8312361 7.64927083 90.1179896 6.19744213 83.7918032 6.8112037 84.1966528 5.77554977 89.3330301 5.33738426 85.8457384 1.55695602 86.2506979 0.521302083"></polygon>
                </g>
                <path d="M91.9313013,49.6596641 C92.0374011,49.6596641 92.116372,49.6807632 92.1682162,49.722962 C92.2200604,49.7651608 92.2459821,49.8308694 92.2459821,49.9200897 C92.2459821,50.0117213 92.2200604,50.0792384 92.1682162,50.1226429 C92.116372,50.1660473 92.0374011,50.1877492 91.9313013,50.1877492 L90.6110885,50.1877492 C90.5242796,50.1877492 90.4555569,50.1618275 90.4049183,50.1099833 C90.3542798,50.0581391 90.3289609,49.9924305 90.3289609,49.9128556 C90.3289609,49.8091672 90.3699534,49.7151256 90.4519396,49.630728 L91.2187481,48.8313663 C91.3778978,48.6649825 91.4574715,48.5118634 91.4574715,48.3720046 C91.4574715,48.2900183 91.4339611,48.2273239 91.3869396,48.1839195 C91.3399181,48.140515 91.2730039,48.1188131 91.1861949,48.1188131 C91.1162655,48.1188131 91.0517626,48.1290612 90.9926843,48.1495578 C90.933606,48.1700543 90.8654861,48.199593 90.7883226,48.2381748 L90.7159821,48.274345 C90.7063367,48.2791677 90.6876489,48.2894158 90.6599183,48.3050897 C90.6321877,48.3207635 90.6074716,48.3322173 90.5857694,48.3394514 C90.5640671,48.3466854 90.5411596,48.3503024 90.517046,48.3503024 C90.456762,48.3503024 90.4061242,48.323175 90.3651311,48.2689195 C90.324138,48.2146639 90.3036417,48.150161 90.3036417,48.0754088 C90.3036417,48.0223589 90.3114785,47.9789551 90.3271524,47.9451961 C90.3428262,47.911437 90.3723649,47.8800898 90.4157694,47.8511535 C90.5291033,47.77399 90.6563006,47.7137069 90.7973651,47.6703024 C90.9384297,47.626898 91.0776836,47.6051961 91.2151311,47.6051961 C91.3935717,47.6051961 91.5503077,47.6347348 91.6853438,47.6938131 C91.82038,47.7528914 91.9246697,47.8372877 91.9982162,47.9470046 C92.0717627,48.0567214 92.1085353,48.1827131 92.1085353,48.3249833 C92.1085353,48.4720762 92.0789966,48.6065075 92.0199183,48.7282812 C91.96084,48.8500548 91.8601673,48.9856918 91.717897,49.1351961 L91.20428,49.6596641 L91.9313013,49.6596641 Z M93.4323651,50.2203024 C93.116477,50.2203024 92.8753447,50.1081759 92.7089609,49.8839195 C92.5425771,49.659663 92.4593864,49.33534 92.4593864,48.9109407 C92.4593864,48.4889528 92.5425771,48.1658355 92.7089609,47.941579 C92.8753447,47.7173226 93.116477,47.6051961 93.4323651,47.6051961 C93.7458419,47.6051961 93.9863714,47.7173226 94.1539609,47.941579 C94.3215504,48.1658355 94.4053438,48.4889528 94.4053438,48.9109407 C94.4053438,49.2370434 94.3562266,49.5040593 94.257991,49.7119927 C94.22838,49.7746698 94.1943061,49.8319786 94.1557694,49.8839195 C93.9893856,50.1081759 93.7482532,50.2203024 93.4323651,50.2203024 Z M93.4323651,49.7175365 C93.5481104,49.7175365 93.631301,49.6548421 93.6819396,49.5294514 C93.7325781,49.4040607 93.757897,49.1978925 93.757897,48.9109407 C93.757897,48.6264003 93.7325781,48.4214378 93.6819396,48.2960471 C93.631301,48.1706564 93.5481104,48.107962 93.4323651,48.107962 C93.3166199,48.107962 93.2334292,48.1700536 93.1827907,48.2942386 C93.1321521,48.4184236 93.1068332,48.6239889 93.1068332,48.9109407 C93.1068332,49.1978925 93.1321521,49.4040607 93.1827907,49.5294514 C93.2334292,49.6548421 93.3166199,49.7175365 93.4323651,49.7175365 Z M98.5504502,49.2509407 C98.7602385,49.2509407 98.8651311,49.3341314 98.8651311,49.5005152 C98.8651311,49.6717217 98.7602385,49.7573237 98.5504502,49.7573237 L98.4708758,49.7573237 L98.4708758,49.8803024 C98.4708758,49.9888136 98.4407342,50.0707986 98.3804502,50.1262599 C98.3201662,50.1817212 98.2417982,50.2094514 98.1453438,50.2094514 C98.0488895,50.2094514 97.9711243,50.1817212 97.912046,50.1262599 C97.8529677,50.0707986 97.823429,49.9888136 97.823429,49.8803024 L97.823429,49.7573237 L97.0168332,49.7573237 C96.9300243,49.7573237 96.8613015,49.7307992 96.810663,49.6777492 C96.7600244,49.6246993 96.7347055,49.5583879 96.7347055,49.4788131 C96.7347055,49.3944155 96.7612301,49.3148418 96.81428,49.2400897 L97.8487481,47.764345 C97.8825071,47.7161178 97.9253081,47.6793451 97.9771524,47.6540258 C98.0289966,47.6287066 98.0826485,47.6160471 98.1381098,47.6160471 C98.2297415,47.6160471 98.3081095,47.644983 98.3732162,47.7028556 C98.4383229,47.7607283 98.4708758,47.8415076 98.4708758,47.9451961 L98.4708758,49.2509407 L98.5504502,49.2509407 Z M97.3893864,49.2509407 L97.823429,49.2509407 L97.823429,48.6251961 L97.3893864,49.2509407 Z" id="2014" fill="#9B9B9B"></path>
                <path d="M95.6187195,50.2203024 C95.3028314,50.2203024 95.061699,50.1081759 94.8953152,49.8839195 C94.7289314,49.659663 94.6457407,49.33534 94.6457407,48.9109407 C94.6457407,48.4889528 94.7289314,48.1658355 94.8953152,47.941579 C95.061699,47.7173226 95.3028314,47.6051961 95.6187195,47.6051961 C95.9321962,47.6051961 96.1727257,47.7173226 96.3403152,47.941579 C96.5079047,48.1658355 96.5916982,48.4889528 96.5916982,48.9109407 C96.5916982,49.2370434 96.5425809,49.5040593 96.4443453,49.7119927 C96.4147343,49.7746698 96.3806605,49.8319786 96.3421237,49.8839195 C96.1757399,50.1081759 95.9346076,50.2203024 95.6187195,50.2203024 Z M95.6187195,49.7175365 C95.7344647,49.7175365 95.8176554,49.6548421 95.8682939,49.5294514 C95.9189325,49.4040607 95.9442514,49.1978925 95.9442514,48.9109407 C95.9442514,48.6264003 95.9189325,48.4214378 95.8682939,48.2960471 C95.8176554,48.1706564 95.7344647,48.107962 95.6187195,48.107962 C95.5029742,48.107962 95.4197836,48.1700536 95.369145,48.2942386 C95.3185065,48.4184236 95.2931876,48.6239889 95.2931876,48.9109407 C95.2931876,49.1978925 95.3185065,49.4040607 95.369145,49.5294514 C95.4197836,49.6548421 95.5029742,49.7175365 95.6187195,49.7175365 Z" id="2014" fill="#9B9B9B"></path>
            </g>
        </g>
    </g>
</svg>