<?xml version="1.0" encoding="UTF-8"?>
<svg width="32px" height="43px" viewBox="0 0 32 43" version="1.1" xmlns="http://www.w3.org/2000/svg" xmlns:xlink="http://www.w3.org/1999/xlink">
    <!-- Generator: Sketch 50.2 (55047) - http://www.bohemiancoding.com/sketch -->
    <title>address</title>
    <desc>Created with Sketch.</desc>
    <defs></defs>
    <g id="Website" stroke="none" stroke-width="1" fill="none" fill-rule="evenodd" opacity="0.5">
        <g id="01-smile-line-website-main" transform="translate(-160.000000, -2952.000000)" fill="#535353" fill-rule="nonzero">
            <g id="address" transform="translate(160.000000, 2952.000000)">
                <g id="Group">
                    <g id="Clipped">
                        <g transform="translate(10.666667, 12.190476)">
                            <path d="M1.52380952,8.38095238 L9.14285714,8.38095238 L9.14285714,1.52380952 L1.52380952,1.52380952 L1.52380952,8.38095238 Z M9.9047619,9.9047619 L0.761904762,9.9047619 C0.341333333,9.9047619 0,9.56342857 0,9.14285714 L0,0.761904762 C0,0.341333333 0.341333333,0 0.761904762,0 L9.9047619,0 C10.3253333,0 10.6666667,0.341333333 10.6666667,0.761904762 L10.6666667,9.14285714 C10.6666667,9.56342857 10.3253333,9.9047619 9.9047619,9.9047619 L9.9047619,9.9047619 Z" id="Shape"></path>
                        </g>
                        <g transform="translate(7.619048, 8.380952)">
                            <path d="M7.61904762,12.1904762 L9.14285714,12.1904762 L9.14285714,9.14285714 L7.61904762,9.14285714 L7.61904762,12.1904762 Z M9.9047619,13.7142857 L6.85714286,13.7142857 C6.43657143,13.7142857 6.0952381,13.3729524 6.0952381,12.952381 L6.0952381,8.38095238 C6.0952381,7.96038095 6.43657143,7.61904762 6.85714286,7.61904762 L9.9047619,7.61904762 C10.3253333,7.61904762 10.6666667,7.96038095 10.6666667,8.38095238 L10.6666667,12.952381 C10.6666667,13.3729524 10.3253333,13.7142857 9.9047619,13.7142857 L9.9047619,13.7142857 Z M3.98925714,3.80952381 L12.7724952,3.80952381 L8.38087619,1.61371429 L3.98925714,3.80952381 Z M15.9999238,5.33333333 L0.761828571,5.33333333 C0.408304762,5.33333333 0.101257143,5.09028571 0.0204952381,4.74666667 C-0.0602666667,4.40228571 0.105066667,4.048 0.421257143,3.88952381 L8.04030476,0.08 C8.2544,-0.0266666667 8.50735238,-0.0266666667 8.72144762,0.08 L16.3404952,3.88952381 C16.6566857,4.048 16.822781,4.40228571 16.7412571,4.74666667 C16.6604952,5.09028571 16.3534476,5.33333333 15.9999238,5.33333333 L15.9999238,5.33333333 Z" id="Shape"></path>
                        </g>
                        <g>
                            <path d="M16.0000762,5.33333333 C10.1181714,5.33333333 5.33340952,10.1180952 5.33340952,16 C5.33340952,21.8819048 10.1181714,26.6666667 16.0000762,26.6666667 C21.881981,26.6666667 26.6667429,21.8819048 26.6667429,16 C26.6667429,10.1180952 21.881981,5.33333333 16.0000762,5.33333333 M16.0000762,28.1904762 C9.27855238,28.1904762 3.8096,22.7215238 3.8096,16 C3.8096,9.27847619 9.27855238,3.80952381 16.0000762,3.80952381 C22.7216,3.80952381 28.1905524,9.27847619 28.1905524,16 C28.1905524,22.7215238 22.7216,28.1904762 16.0000762,28.1904762 M16.0000762,1.52380952 C8.0176,1.52380952 1.52388571,8.01752381 1.52388571,16 C1.52388571,24.215619 13.6061714,41.1428571 16.0000762,41.1428571 C18.393981,41.1428571 30.4762667,24.215619 30.4762667,16 C30.4762667,8.01752381 23.9825524,1.52380952 16.0000762,1.52380952 M16.0000762,42.6666667 C12.3284571,42.6666667 7.61904764e-05,24.7215238 7.61904764e-05,16 C7.61904764e-05,7.17714286 7.17721905,0 16.0000762,0 C24.8229333,0 32.0000762,7.17714286 32.0000762,16 C32.0000762,24.7215238 19.6716952,42.6666667 16.0000762,42.6666667" id="Shape"></path>
                        </g>
                    </g>
                </g>
            </g>
        </g>
    </g>
</svg>