<?xml version="1.0" encoding="UTF-8"?>
<svg viewBox="0 0 21 17" version="1.1" xmlns="http://www.w3.org/2000/svg" xmlns:xlink="http://www.w3.org/1999/xlink">
    <!-- Generator: Sketch 50.2 (55047) - http://www.bohemiancoding.com/sketch -->
    <title>twitter</title>
    <desc>Created with Sketch.</desc>
    <defs>
        <path d="M504.951502,127.386612 C504.951502,127.736914 504.995388,128.075461 505.07689,128.39951 L505.07689,128.39951 C500.409723,128.667527 496.64378,124.148473 496.64378,124.148473 L496.64378,124.148473 C494.901282,127.171494 497.711535,129.596571 497.711535,129.596571 L497.711535,129.596571 C496.952939,129.71138 496.109314,129.083265 496.109314,129.083265 L496.109314,129.083265 C496.053282,132.535347 499.173478,133.192065 499.173478,133.192065 L499.173478,133.192065 C498.555159,133.476931 497.515225,133.248882 497.515225,133.248882 L497.515225,133.248882 C498.386278,136.101453 501.14089,136.072849 501.14089,136.072849 L501.14089,136.072849 C499.005772,138.470106 495.209657,137.784392 495.209657,137.784392 L495.209657,137.784392 C498.835714,140.551935 503.83947,139.466939 503.83947,139.466939 L503.83947,139.466939 C513.705919,137.128849 513.058604,127.581747 513.058604,127.581747 L513.058604,127.581747 C514.981739,125.812212 515.135731,125.253453 515.135731,125.253453 L515.135731,125.253453 C514.494294,125.739331 512.895992,125.867461 512.895992,125.867461 L512.895992,125.867461 C514.611845,124.519935 514.548368,123.649665 514.548368,123.649273 L514.548368,123.649273 C513.452792,124.445486 512.355257,124.541878 511.821968,124.532473 L511.821968,124.532473 C511.093935,123.782498 510.081821,123.316996 508.962343,123.316996 L508.962343,123.316996 C506.74729,123.316996 504.951502,125.139037 504.951502,127.386612 L504.951502,127.386612 Z" id="path-1"></path>
    </defs>
    <g id="Website" stroke="none" stroke-width="1" fill="none" fill-rule="evenodd">
        <g id="04-smile-line-news" transform="translate(-495.000000, -2183.000000)">
            <g id="Group-33" transform="translate(0.000000, 2060.000000)">
                <mask id="mask-2" fill="white">
                    <use xlink:href="#path-1"></use>
                </mask>
                <use id="twitter" fill="#DAEDFC" xlink:href="#path-1"></use>
            </g>
        </g>
    </g>
</svg>