<?xml version="1.0" encoding="UTF-8"?>
<svg width="34px" height="34px" viewBox="0 0 34 34" version="1.1" xmlns="http://www.w3.org/2000/svg" xmlns:xlink="http://www.w3.org/1999/xlink">
    <!-- Generator: Sketch 50.2 (55047) - http://www.bohemiancoding.com/sketch -->
    <title>right-small</title>
    <desc>Created with Sketch.</desc>
    <defs></defs>
    <g id="Website" stroke="none" stroke-width="1" fill="none" fill-rule="evenodd">
        <g id="01-smile-line-website-main" transform="translate(-1277.000000, -693.000000)" fill-rule="nonzero">
            <g id="right-small" transform="translate(1277.000000, 693.000000)">
                <path d="M17,1.88888889 C8.65436378,1.88888889 1.88888889,8.65436378 1.88888889,17 C1.88888889,25.3456362 8.65436378,32.1111111 17,32.1111111 C25.3456362,32.1111111 32.1111111,25.3456362 32.1111111,17 C32.1111111,8.65436378 25.3456362,1.88888889 17,1.88888889 Z M17,0 C26.3888407,-1.72470207e-15 34,7.61115925 34,17 C34,26.3888407 26.3888407,34 17,34 C7.61115925,34 1.14980138e-15,26.3888407 0,17 C-1.14980138e-15,7.61115925 7.61115925,1.72470207e-15 17,0 Z" id="Rectangle" fill="#FFDE49" transform="translate(17.000000, 17.000000) rotate(90.000000) translate(-17.000000, -17.000000) "></path>
                <path d="M20.5652094,16.5108773 L17.0271827,12.9728506 C16.889568,12.8351691 16.7246704,12.7663284 16.5326235,12.7663284 C16.3441786,12.7663284 16.1811488,12.8351691 16.0434674,12.9728506 L15.6358929,13.3804251 C15.4982114,13.5109023 15.4293707,13.6739321 15.4293707,13.8695812 C15.4293707,14.0652303 15.4982114,14.2282601 15.6358929,14.3587373 L17.2283017,15.9565493 L13.4021713,15.9565493 C13.2137932,15.9565493 13.0607026,16.0244561 12.9429663,16.1603365 C12.8252299,16.2962169 12.7663284,16.4601806 12.7663284,16.6521609 L12.7663284,17.3478391 C12.7663284,17.5398861 12.8252299,17.7037831 12.9429663,17.8396635 C13.0607026,17.9755439 13.2137932,18.0434507 13.4021713,18.0434507 L17.228235,18.0434507 L15.6358262,19.6359263 C15.4981447,19.7734743 15.429304,19.9383719 15.429304,20.1304188 C15.429304,20.3224658 15.4981447,20.4873634 15.6358262,20.6249781 L16.0434007,21.0325526 C16.184751,21.1666319 16.3477808,21.2336716 16.5325568,21.2336716 C16.7210016,21.2336716 16.8858992,21.1666319 17.027116,21.0325526 L20.5651427,17.4945259 C20.699222,17.3604466 20.7663284,17.1956824 20.7663284,16.9999666 C20.7663284,16.8007154 20.699222,16.6376189 20.5652094,16.5108773 Z" id="Shape" fill="#1C4386"></path>
            </g>
        </g>
    </g>
</svg>