<?xml version="1.0" encoding="UTF-8"?>
<svg width="55px" height="54px" viewBox="0 0 55 54" version="1.1" xmlns="http://www.w3.org/2000/svg" xmlns:xlink="http://www.w3.org/1999/xlink">
    <!-- Generator: Sketch 50.2 (55047) - http://www.bohemiancoding.com/sketch -->
    <title>right-trip</title>
    <desc>Created with Sketch.</desc>
    <defs></defs>
    <g id="Website" stroke="none" stroke-width="1" fill="none" fill-rule="evenodd">
        <g id="01-smile-line-website-main" transform="translate(-1295.000000, -2566.000000)" fill-rule="nonzero">
            <g id="right-trip" transform="translate(1322.529412, 2593.000000) rotate(90.000000) translate(-1322.529412, -2593.000000) translate(1295.529412, 2566.000000)">
                <path d="M27,3 C13.745166,3 3,13.745166 3,27 C3,40.254834 13.745166,51 27,51 C40.254834,51 51,40.254834 51,27 C51,13.745166 40.254834,3 27,3 Z M27,0 C41.9116882,-2.73923269e-15 54,12.0883118 54,27 C54,41.9116882 41.9116882,54 27,54 C12.0883118,54 1.82615513e-15,41.9116882 0,27 C-1.82615513e-15,12.0883118 12.0883118,2.73923269e-15 27,0 Z" id="Rectangle" fill="#00A47E"></path>
                <path d="M33.0335169,26.5942835 L27.4142981,20.9750647 C27.1957335,20.7563941 26.9338373,20.6470588 26.6288216,20.6470588 C26.3295268,20.6470588 26.0705972,20.7563941 25.8519266,20.9750647 L25.2046024,21.6223888 C24.9859319,21.8296173 24.8765966,22.088547 24.8765966,22.3992838 C24.8765966,22.7100206 24.9859319,22.9689503 25.2046024,23.1761787 L27.7337224,25.7138802 L21.6569269,25.7138802 C21.3577381,25.7138802 21.1145943,25.8217323 20.9276013,26.0375423 C20.7406083,26.2533524 20.6470588,26.5137653 20.6470588,26.8186751 L20.6470588,27.9235759 C20.6470588,28.2285916 20.7406083,28.4888986 20.9276013,28.7047086 C21.1145943,28.9205187 21.3577381,29.0283707 21.6569269,29.0283707 L27.7336164,29.0283707 L25.2044965,31.5575966 C24.9858259,31.7760552 24.8764906,32.0379514 24.8764906,32.3429671 C24.8764906,32.6479829 24.9858259,32.909879 25.2044965,33.1284436 L25.8518207,33.7757678 C26.0763182,33.9887173 26.3352479,34.0951921 26.6287156,34.0951921 C26.9280103,34.0951921 27.1899065,33.9887173 27.4141921,33.7757678 L33.0334109,28.156549 C33.2463605,27.9435995 33.3529412,27.6819152 33.3529412,27.3710725 C33.3529412,27.0546147 33.2463605,26.7955791 33.0335169,26.5942835 Z" id="Shape" fill="#1C4386" transform="translate(27.000000, 27.371125) rotate(-90.000000) translate(-27.000000, -27.371125) "></path>
            </g>
        </g>
    </g>
</svg>