<?xml version="1.0" encoding="UTF-8"?>
<svg viewBox="0 0 16 15" version="1.1" xmlns="http://www.w3.org/2000/svg" xmlns:xlink="http://www.w3.org/1999/xlink">
    <!-- Generator: sketchtool 49.3 (51167) - http://www.bohemiancoding.com/sketch -->
    <title>294E2A37-597E-42F6-8254-339E0F0D08B5</title>
    <desc>Created with sketchtool.</desc>
    <defs></defs>
    <g id="Website" stroke="none" stroke-width="1" fill="none" fill-rule="evenodd">
        <g id="02-smile-line-tour-page" transform="translate(-1236.000000, -346.000000)" fill="#FFDE49" fill-rule="nonzero">
            <g id="Group-29" transform="translate(986.000000, 236.000000)">
                <g id="Group-11" transform="translate(42.000000, 81.000000)">
                    <g id="calendar" transform="translate(208.000000, 29.000000)">
                        <path d="M14,14.6666667 L2,14.6666667 C0.866666667,14.6666667 0,13.8 0,12.6666667 L0,3.33333333 C0,2.2 0.866666667,1.33333333 2,1.33333333 L14,1.33333333 C15.1333333,1.33333333 16,2.2 16,3.33333333 L16,12.6666667 C16,13.8 15.1333333,14.6666667 14,14.6666667 Z M2,2.66666667 C1.6,2.66666667 1.33333333,2.93333333 1.33333333,3.33333333 L1.33333333,12.6666667 C1.33333333,13.0666667 1.6,13.3333333 2,13.3333333 L14,13.3333333 C14.4,13.3333333 14.6666667,13.0666667 14.6666667,12.6666667 L14.6666667,3.33333333 C14.6666667,2.93333333 14.4,2.66666667 14,2.66666667 L2,2.66666667 Z" id="Shape"></path>
                        <path d="M4,4 C3.6,4 3.33333333,3.73333333 3.33333333,3.33333333 L3.33333333,0.666666667 C3.33333333,0.266666667 3.6,0 4,0 C4.4,0 4.66666667,0.266666667 4.66666667,0.666666667 L4.66666667,3.33333333 C4.66666667,3.73333333 4.4,4 4,4 Z" id="Shape"></path>
                        <path d="M12,4 C11.6,4 11.3333333,3.73333333 11.3333333,3.33333333 L11.3333333,0.666666667 C11.3333333,0.266666667 11.6,0 12,0 C12.4,0 12.6666667,0.266666667 12.6666667,0.666666667 L12.6666667,3.33333333 C12.6666667,3.73333333 12.4,4 12,4 Z" id="Shape"></path>
                        <path d="M15.3333333,6.66666667 L0.666666667,6.66666667 C0.266666667,6.66666667 0,6.4 0,6 C0,5.6 0.266666667,5.33333333 0.666666667,5.33333333 L15.3333333,5.33333333 C15.7333333,5.33333333 16,5.6 16,6 C16,6.4 15.7333333,6.66666667 15.3333333,6.66666667 Z" id="Shape"></path>
                        <g id="Group" transform="translate(2.666667, 7.333333)">
                            <circle id="Oval" cx="1.33333333" cy="1.33333333" r="1"></circle>
                            <path d="M1.33333333,2.33333333 C0.8,2.33333333 0.333333333,1.86666667 0.333333333,1.33333333 C0.333333333,0.8 0.8,0.333333333 1.33333333,0.333333333 C1.86666667,0.333333333 2.33333333,0.8 2.33333333,1.33333333 C2.33333333,1.86666667 1.86666667,2.33333333 1.33333333,2.33333333 Z M1.33333333,1 C1.13333333,1 1,1.13333333 1,1.33333333 C1,1.53333333 1.13333333,1.66666667 1.33333333,1.66666667 C1.53333333,1.66666667 1.66666667,1.53333333 1.66666667,1.33333333 C1.66666667,1.13333333 1.53333333,1 1.33333333,1 Z" id="Shape"></path>
                        </g>
                        <g id="Group" transform="translate(2.666667, 10.000000)">
                            <circle id="Oval" cx="1.33333333" cy="1.33333333" r="1"></circle>
                            <path d="M1.33333333,2.33333333 C0.8,2.33333333 0.333333333,1.86666667 0.333333333,1.33333333 C0.333333333,0.8 0.8,0.333333333 1.33333333,0.333333333 C1.86666667,0.333333333 2.33333333,0.8 2.33333333,1.33333333 C2.33333333,1.86666667 1.86666667,2.33333333 1.33333333,2.33333333 Z M1.33333333,1 C1.13333333,1 1,1.13333333 1,1.33333333 C1,1.53333333 1.13333333,1.66666667 1.33333333,1.66666667 C1.53333333,1.66666667 1.66666667,1.53333333 1.66666667,1.33333333 C1.66666667,1.13333333 1.53333333,1 1.33333333,1 Z" id="Shape"></path>
                        </g>
                        <g id="Group" transform="translate(5.333333, 10.000000)">
                            <circle id="Oval" cx="1.33333333" cy="1.33333333" r="1"></circle>
                            <path d="M1.33333333,2.33333333 C0.8,2.33333333 0.333333333,1.86666667 0.333333333,1.33333333 C0.333333333,0.8 0.8,0.333333333 1.33333333,0.333333333 C1.86666667,0.333333333 2.33333333,0.8 2.33333333,1.33333333 C2.33333333,1.86666667 1.86666667,2.33333333 1.33333333,2.33333333 Z M1.33333333,1 C1.13333333,1 1,1.13333333 1,1.33333333 C1,1.53333333 1.13333333,1.66666667 1.33333333,1.66666667 C1.53333333,1.66666667 1.66666667,1.53333333 1.66666667,1.33333333 C1.66666667,1.13333333 1.53333333,1 1.33333333,1 Z" id="Shape"></path>
                        </g>
                        <g id="Group" transform="translate(5.333333, 7.333333)">
                            <circle id="Oval" cx="1.33333333" cy="1.33333333" r="1"></circle>
                            <path d="M1.33333333,2.33333333 C0.8,2.33333333 0.333333333,1.86666667 0.333333333,1.33333333 C0.333333333,0.8 0.8,0.333333333 1.33333333,0.333333333 C1.86666667,0.333333333 2.33333333,0.8 2.33333333,1.33333333 C2.33333333,1.86666667 1.86666667,2.33333333 1.33333333,2.33333333 Z M1.33333333,1 C1.13333333,1 1,1.13333333 1,1.33333333 C1,1.53333333 1.13333333,1.66666667 1.33333333,1.66666667 C1.53333333,1.66666667 1.66666667,1.53333333 1.66666667,1.33333333 C1.66666667,1.13333333 1.53333333,1 1.33333333,1 Z" id="Shape"></path>
                        </g>
                        <g id="Group" transform="translate(8.000000, 7.333333)">
                            <circle id="Oval" cx="1.33333333" cy="1.33333333" r="1"></circle>
                            <path d="M1.33333333,2.33333333 C0.8,2.33333333 0.333333333,1.86666667 0.333333333,1.33333333 C0.333333333,0.8 0.8,0.333333333 1.33333333,0.333333333 C1.86666667,0.333333333 2.33333333,0.8 2.33333333,1.33333333 C2.33333333,1.86666667 1.86666667,2.33333333 1.33333333,2.33333333 Z M1.33333333,1 C1.13333333,1 1,1.13333333 1,1.33333333 C1,1.53333333 1.13333333,1.66666667 1.33333333,1.66666667 C1.53333333,1.66666667 1.66666667,1.53333333 1.66666667,1.33333333 C1.66666667,1.13333333 1.53333333,1 1.33333333,1 Z" id="Shape"></path>
                        </g>
                        <g id="Group" transform="translate(8.000000, 10.000000)">
                            <circle id="Oval" cx="1.33333333" cy="1.33333333" r="1"></circle>
                            <path d="M1.33333333,2.33333333 C0.8,2.33333333 0.333333333,1.86666667 0.333333333,1.33333333 C0.333333333,0.8 0.8,0.333333333 1.33333333,0.333333333 C1.86666667,0.333333333 2.33333333,0.8 2.33333333,1.33333333 C2.33333333,1.86666667 1.86666667,2.33333333 1.33333333,2.33333333 Z M1.33333333,1 C1.13333333,1 1,1.13333333 1,1.33333333 C1,1.53333333 1.13333333,1.66666667 1.33333333,1.66666667 C1.53333333,1.66666667 1.66666667,1.53333333 1.66666667,1.33333333 C1.66666667,1.13333333 1.53333333,1 1.33333333,1 Z" id="Shape"></path>
                        </g>
                        <g id="Group" transform="translate(10.666667, 10.000000)">
                            <circle id="Oval" cx="1.33333333" cy="1.33333333" r="1"></circle>
                            <path d="M1.33333333,2.33333333 C0.8,2.33333333 0.333333333,1.86666667 0.333333333,1.33333333 C0.333333333,0.8 0.8,0.333333333 1.33333333,0.333333333 C1.86666667,0.333333333 2.33333333,0.8 2.33333333,1.33333333 C2.33333333,1.86666667 1.86666667,2.33333333 1.33333333,2.33333333 Z M1.33333333,1 C1.13333333,1 1,1.13333333 1,1.33333333 C1,1.53333333 1.13333333,1.66666667 1.33333333,1.66666667 C1.53333333,1.66666667 1.66666667,1.53333333 1.66666667,1.33333333 C1.66666667,1.13333333 1.53333333,1 1.33333333,1 Z" id="Shape"></path>
                        </g>
                        <g id="Group" transform="translate(10.666667, 7.333333)">
                            <circle id="Oval" cx="1.33333333" cy="1.33333333" r="1"></circle>
                            <path d="M1.33333333,2.33333333 C0.8,2.33333333 0.333333333,1.86666667 0.333333333,1.33333333 C0.333333333,0.8 0.8,0.333333333 1.33333333,0.333333333 C1.86666667,0.333333333 2.33333333,0.8 2.33333333,1.33333333 C2.33333333,1.86666667 1.86666667,2.33333333 1.33333333,2.33333333 Z M1.33333333,1 C1.13333333,1 1,1.13333333 1,1.33333333 C1,1.53333333 1.13333333,1.66666667 1.33333333,1.66666667 C1.53333333,1.66666667 1.66666667,1.53333333 1.66666667,1.33333333 C1.66666667,1.13333333 1.53333333,1 1.33333333,1 Z" id="Shape"></path>
                        </g>
                    </g>
                </g>
            </g>
        </g>
    </g>
</svg>