<?xml version="1.0" encoding="UTF-8"?>
<svg width="18px" height="18px" viewBox="0 0 18 18" version="1.1" xmlns="http://www.w3.org/2000/svg" xmlns:xlink="http://www.w3.org/1999/xlink">
    <!-- Generator: Sketch 51.1 (57501) - http://www.bohemiancoding.com/sketch -->
    <title>pdf</title>
    <desc>Created with Sketch.</desc>
    <defs></defs>
    <g id="Website" stroke="none" stroke-width="1" fill="none" fill-rule="evenodd">
        <g id="purchased" transform="translate(-678.000000, -240.000000)" fill="#1C4386" fill-rule="nonzero">
            <g id="Group-3" transform="translate(656.000000, 230.000000)">
                <path d="M30.3,15.6 C30.4,15.2 30.5,15 30.5,14.7 L30.5,14.5 C30.6,14 30.6,13.6 30.5,13.5 C30.5,13.5 30.5,13.5 30.5,13.4 L30.4,13.3 C30.4,13.3 30.4,13.4 30.3,13.4 C30.1,14 30.1,14.7 30.3,15.6 Z M27.3,22.5 C27.1,22.6 26.9,22.7 26.8,22.8 C26.1,23.4 25.6,24.1 25.5,24.4 C26.1,24.3 26.7,23.7 27.3,22.5 Z M36.5,21 C36.4,20.9 36,20.6 34.6,20.6 L34.4,20.6 C34.4,20.6 34.4,20.6 34.4,20.7 C35.1,21 35.8,21.2 36.3,21.2 L36.5,21.2 L36.6,21.2 C36.6,21.2 36.6,21.2 36.6,21.1 C36.6,21.1 36.5,21.1 36.5,21 Z M38,10 L24,10 C22.9,10 22,10.9 22,12 L22,26 C22,27.1 22.9,28 24,28 L38,28 C39.1,28 40,27.1 40,26 L40,12 C40,10.9 39.1,10 38,10 Z M36.9,21.8 C36.7,21.9 36.4,22 36,22 C35.2,22 34,21.8 33,21.3 C31.3,21.5 30,21.7 29,22.1 C28.9,22.1 28.9,22.1 28.8,22.2 C27.6,24.3 26.6,25.3 25.8,25.3 C25.6,25.3 25.5,25.3 25.4,25.2 L24.9,24.9 L24.9,24.8 C24.8,24.6 24.8,24.5 24.8,24.3 C24.9,23.8 25.5,22.9 26.7,22.2 C26.9,22.1 27.2,21.9 27.6,21.7 C27.9,21.2 28.2,20.6 28.6,19.9 C29.1,18.9 29.4,17.9 29.7,17 C29.3,15.8 29.1,15.1 29.5,13.7 C29.6,13.3 29.9,12.9 30.3,12.9 L30.5,12.9 C30.7,12.9 30.9,13 31.1,13.1 C31.8,13.8 31.5,15.4 31.1,16.7 L31.1,16.8 C31.5,17.9 32.1,18.8 32.7,19.4 C33,19.6 33.2,19.8 33.6,20 C34.1,20 34.5,19.9 34.9,19.9 C36.1,19.9 36.9,20.1 37.2,20.6 C37.3,20.8 37.3,21 37.3,21.2 C37.2,21.3 37.1,21.6 36.9,21.8 Z M30.4,17.9 C30.2,18.6 29.8,19.4 29.4,20.3 C29.2,20.7 29,21 28.8,21.4 L28.9,21.4 L29,21.4 C30.3,20.9 31.5,20.6 32.3,20.5 C32.1,20.4 32,20.3 31.9,20.2 C31.4,19.6 30.8,18.8 30.4,17.9 Z" id="pdf"></path>
            </g>
        </g>
    </g>
</svg>