<?xml version="1.0" encoding="UTF-8"?>
<svg width="30px" height="30px" viewBox="0 0 30 30" version="1.1" xmlns="http://www.w3.org/2000/svg" xmlns:xlink="http://www.w3.org/1999/xlink">
    <!-- Generator: Sketch 50.2 (55047) - http://www.bohemiancoding.com/sketch -->
    <title>mail</title>
    <desc>Created with Sketch.</desc>
    <defs></defs>
    <g id="Website" stroke="none" stroke-width="1" fill="none" fill-rule="evenodd">
        <g id="01-smile-line-website-main" transform="translate(-786.000000, -21.000000)" fill="#E74E44" fill-rule="nonzero">
            <g id="mail" transform="translate(786.000000, 21.000000)">
                <path d="M15,0.5999451 C7.04708865,0.5999451 0.6000366,7.04708865 0.6000366,15 C0.6000366,22.9529114 7.04708865,29.3999634 15,29.3999634 C22.9529114,29.3999634 29.3999634,22.9529114 29.3999634,15 C29.3999634,7.04708865 22.9529114,0.5999451 15,0.5999451 Z M9.3469848,10.5 L20.6263733,10.5 C21.2245788,10.5 20.916687,11.2675782 20.5911255,11.4645996 C20.265564,11.6608887 15.7591553,14.3851319 15.591156,14.4862061 C15.4231568,14.5872803 15.205719,14.6356202 14.9869995,14.6356202 C14.7681885,14.6356202 14.5507508,14.5872803 14.382843,14.4862061 C14.2148438,14.3851319 9.7083435,11.6608887 9.382782,11.4645996 C9.057312,11.2675782 8.74932855,10.5 9.3469848,10.5 Z M21,18.75 C21,19.0649414 20.6224365,19.5 20.333313,19.5 L9.666687,19.5 C9.3775635,19.5 9,19.0649414 9,18.75 C9,18.75 9,13.4183349 9,13.2799073 C9,13.1422119 8.9974365,12.9627686 9.2578125,13.1158448 C9.627594,13.3326416 14.15625,16.003418 14.382843,16.1367188 C14.6093445,16.2700196 14.7681885,16.2860412 14.9869995,16.2860412 C15.205719,16.2860412 15.364563,16.2700194 15.591156,16.1367188 C15.817749,16.0034181 20.372406,13.333374 20.7421875,13.1165772 C21.0025635,12.963501 21,13.1429444 21,13.2806397 C21,13.4190674 21,18.75 21,18.75 Z" id="Shape"></path>
            </g>
        </g>
    </g>
</svg>