<?xml version="1.0" encoding="UTF-8"?>
<svg viewBox="0 0 30 30" version="1.1" xmlns="http://www.w3.org/2000/svg" xmlns:xlink="http://www.w3.org/1999/xlink">
    <g id="Website" stroke="none" stroke-width="1" fill="none" fill-rule="evenodd">
        <g id="01-smile-line-website-main" transform="translate(-512.000000, -21.000000)">
            <g id="phone" transform="translate(512.000000, 21.000000)">
                <g>
                    <circle id="Oval" fill="#4A90E2" cx="15" cy="15" r="15"></circle>
                    <g id="phone-mobile-smartphone-touch-signal" transform="translate(6.000000, 6.000000)" fill="#FFFFFF" fill-rule="nonzero">
                        <path d="M12.4606857,11.9073524 C12.3273143,11.7741714 12.1165333,11.7578286 11.9649524,11.8701714 L11.1135619,12.499619 C10.2897143,13.1093714 9.0287619,13.0141333 8.30350476,12.2894476 L5.82990476,9.81584762 C5.10464762,9.0904 5.01032381,7.8296 5.61969524,7.0055619 L6.24899048,6.1544 C6.36114286,6.00259048 6.34533333,5.79165714 6.2119619,5.65847619 L3.5592381,3.00594286 C3.41584762,2.86270476 3.18518095,2.8560381 3.03508571,2.99219048 L1.18297143,4.65885714 C-0.212304762,5.91481905 -0.39927619,8.12388571 0.760533333,9.59485714 C0.878095238,9.7823619 1.5384381,10.7280381 4.4647619,13.6544 C7.37881905,16.5684571 8.3263619,17.2332571 8.51870476,17.3541714 C9.16434286,17.8750095 9.95638095,18.1294476 10.749181,18.1291048 C11.7499048,18.1291048 12.7517714,17.723581 13.4603048,16.936381 L15.1271619,15.0840762 C15.2627429,14.9334095 15.2566095,14.7031238 15.1133714,14.5598857 L12.4606857,11.9073524 Z" id="Shape"></path>
                        <path d="M10.1784762,2.39733333 C9.96811429,2.39733333 9.79752381,2.56769524 9.79752381,2.77828571 C9.79752381,2.9888381 9.96811429,3.1592381 10.1784762,3.1592381 C11.3994667,3.1592381 12.5475429,3.63466667 13.4110095,4.49813333 C14.2744762,5.3616 14.7499048,6.50929524 14.7499048,7.73066667 C14.7499048,7.94121905 14.9204952,8.11161905 15.1308571,8.11161905 C15.3412571,8.11161905 15.5118095,7.94121905 15.5118095,7.73066667 C15.5118095,6.30579048 14.9571429,4.96651429 13.9496762,3.95946667 C12.9424381,2.952 11.6031619,2.39733333 10.1784762,2.39733333 Z" id="Shape"></path>
                        <path d="M15.5659429,2.34300952 C14.0545905,0.832228571 12.0456762,0 9.90914286,0 C9.69878095,0 9.52819048,0.1704 9.52819048,0.380952381 C9.52819048,0.591504762 9.69878095,0.761904762 9.90914286,0.761904762 C11.8421714,0.761904762 13.6598857,1.51489524 15.0272762,2.88171429 C16.3942476,4.24887619 17.1472381,6.06659048 17.1472381,8 C17.1472381,8.21055238 17.3178286,8.38095238 17.5281905,8.38095238 C17.7385524,8.38095238 17.9091429,8.21055238 17.9091429,8 C17.9091429,5.86308571 17.0769143,3.85417143 15.5659429,2.34300952 Z" id="Shape"></path>
                        <path d="M11.7947429,6.11420952 C12.2984762,6.61794286 12.5758095,7.28758095 12.5758095,8 C12.5758095,8.21055238 12.7464,8.38095238 12.9567619,8.38095238 C13.1671238,8.38095238 13.3377143,8.21055238 13.3377143,8 C13.3377143,7.08407619 12.9811429,6.2232 12.3334476,5.57550476 C11.6857524,4.92780952 10.8248762,4.57142857 9.90914286,4.57142857 C9.69878095,4.57142857 9.52819048,4.74182857 9.52819048,4.95238095 C9.52819048,5.16293333 9.69878095,5.33333333 9.90914286,5.33333333 C10.6213714,5.33333333 11.2910095,5.61085714 11.7947429,6.11420952 Z" id="Shape"></path>
                    </g>
                </g>
            </g>
        </g>
    </g>
</svg>