<?xml version="1.0" encoding="UTF-8"?>
<svg viewBox="0 0 30 30" version="1.1" xmlns="http://www.w3.org/2000/svg" xmlns:xlink="http://www.w3.org/1999/xlink">
    <g id="Website" stroke="none" stroke-width="1" fill="none" fill-rule="evenodd">
        <g id="01-smile-line-website-main" transform="translate(-1017.000000, -21.000000)">
            <g id="whatsapp" transform="translate(1017.000000, 21.000000)">
                <circle id="Oval" fill="#25D366" cx="15" cy="15" r="15"></circle>
                <path d="M15.4944219,23.345323 L15.4907317,23.345323 C13.9979404,23.3448081 12.5311259,22.9702672 11.2283426,22.2596573 L6.5,23.5 L7.76538418,18.8780279 C6.98483323,17.5253247 6.57411179,15.9909291 6.57478117,14.4189027 C6.5767378,9.50105841 10.5780108,5.5 15.4943361,5.5 C17.8803993,5.50102981 20.1198867,6.4299159 21.8038789,8.11588192 C23.4878712,9.80176211 24.4147835,12.0427084 24.4138395,14.4259397 C24.4118657,19.3426683 20.4121803,23.3433148 15.4944219,23.345323 L15.4944219,23.345323 Z M11.4474169,20.6449282 L11.7181275,20.8055953 C12.8563648,21.4810458 14.1611219,21.838449 15.4914183,21.8389639 L15.4944219,21.8389639 C19.5805252,21.8389639 22.9062017,18.5132101 22.9078323,14.4254248 C22.9086046,12.4445048 22.138223,10.5819269 20.7385434,9.18061674 C19.3388638,7.7793066 17.4774873,7.00720865 15.4973397,7.00652211 C11.4080783,7.00652211 8.08235883,10.3319412 8.08073688,14.4194176 C8.08016191,15.82023 8.47210653,17.1844499 9.21421134,18.364772 L9.39048,18.6452657 L8.64155272,21.3809657 L11.4474169,20.6449282 Z M19.9879856,16.5469563 C19.9322902,16.4539905 19.7837405,16.3982179 19.560873,16.2866211 C19.3380056,16.1750758 18.2422907,15.6359803 18.0379598,15.5615338 C17.8337147,15.4871903 17.6850792,15.45004 17.5365295,15.6730791 C17.3879799,15.8961611 16.9608673,16.3982179 16.8308542,16.5469563 C16.700841,16.6956519 16.5708279,16.7143258 16.3480462,16.602729 C16.1251788,16.4911837 15.4070599,16.2558642 14.5557784,15.496553 C13.8932347,14.9055724 13.4459551,14.1757824 13.3159506,13.9526575 C13.185946,13.7295326 13.3020911,13.6089593 13.4136621,13.497826 C13.513931,13.3979347 13.6365467,13.2374564 13.7479719,13.1073574 C13.859397,12.9772584 13.8965387,12.8842325 13.9708307,12.735597 C14.0451141,12.5867899 14.007981,12.4566909 13.9522513,12.3451284 C13.8965387,12.233566 13.4508296,11.1365639 13.2651124,10.6903141 C13.0841925,10.2557355 12.9004663,10.3146061 12.7636736,10.3077407 C12.6338234,10.3012186 12.485085,10.2998455 12.3365267,10.2998455 C12.1879598,10.2998455 11.9464958,10.3556268 11.7422164,10.5787516 C11.537937,10.8018765 10.9621975,11.3410664 10.9621975,12.4379827 C10.9621975,13.5349848 11.7607786,14.5947423 11.872221,14.7434636 C11.9836461,14.8922707 13.4437411,17.1433091 15.6794439,18.1086761 C16.2111677,18.3383145 16.6262658,18.475442 16.9499685,18.5781395 C17.4838377,18.7478088 17.9697351,18.7238658 18.3536816,18.666454 C18.7819097,18.6024944 19.6722639,18.1273585 19.8580582,17.6067824 C20.043681,17.0861033 20.043681,16.6398793 19.9879856,16.5469563 L19.9879856,16.5469563 Z" id="Page-1" fill="#FDFDFD"></path>
            </g>
        </g>
    </g>
</svg>