<?xml version="1.0" encoding="UTF-8"?>
<svg width="54px" height="54px" viewBox="0 0 54 54" version="1.1" xmlns="http://www.w3.org/2000/svg" xmlns:xlink="http://www.w3.org/1999/xlink">
    <!-- Generator: sketchtool 49.3 (51167) - http://www.bohemiancoding.com/sketch -->
    <title>4067C186-ED1D-49A9-B33B-9B8C4CB020BC</title>
    <desc>Created with sketchtool.</desc>
    <defs></defs>
    <g id="Website" stroke="none" stroke-width="1" fill="none" fill-rule="evenodd">
        <g id="02-smile-line-tour-page" transform="translate(-712.000000, -515.000000)">
            <g id="all-photos" transform="translate(712.000000, 515.000000)">
                <g id="Group-16" transform="translate(27.000000, 27.000000) rotate(-90.000000) translate(-27.000000, -27.000000) " fill="#FFFFFF">
                    <rect id="Rectangle" x="0" y="0" width="54" height="54" rx="27"></rect>
                </g>
                <g id="photos" transform="translate(10.000000, 11.000000)" fill="#1C4386" fill-rule="nonzero">
                    <path d="M30.0988527,8.34514731 L28.6947477,1.94454253 C28.4833463,0.980380903 27.5306118,0.37188779 26.5678785,0.583289154 L1.61823254,6.05687039 C0.655499301,6.26827176 0.0455778007,7.21957789 0.256979164,8.18231113 L3.27801891,21.957681 L2.5895361,27.5255359 C2.46812315,28.5039814 3.16231952,29.3952952 4.14076502,29.5167082 L29.4903596,32.6591608 C30.4688051,32.7805738 31.3601189,32.084949 31.4815319,31.1065035 L33.9283598,11.3633303 C34.0512011,10.3834564 33.3555764,9.49214254 32.3771309,9.37215799 L31.0430169,9.20503664 C30.5773625,9.14790114 30.2002682,8.80365973 30.0988527,8.34514731 Z M26.9592567,8.69938743 L13.3495798,7.01246169 C12.9253487,6.95961135 12.8953525,6.3554034 13.3138701,6.26112982 L25.4880175,3.52291081 C25.9879532,3.41149658 26.4850321,3.72574185 26.5978747,4.2256775 L27.4749047,8.12946078 C27.546324,8.44799122 27.2820723,8.73938229 26.9592567,8.69938743 Z M3.02805109,9.38072831 C2.93234912,8.9564972 3.1994576,8.53655125 3.62368871,8.44084928 L4.32931218,8.28229826 C4.65212777,8.20945049 4.94923239,8.47941574 4.90923754,8.80794489 L4.51928773,11.9532544 C4.45643867,12.4631887 3.72938939,12.49747 3.61654677,11.996106 L3.02805109,9.38072831 Z M28.2233798,29.9580799 L6.10908311,27.3341319 C5.60057713,27.2727112 5.2363383,26.8113421 5.29775896,26.3028361 L7.23465253,9.97350916 C7.29464481,9.46357479 7.75744239,9.10076435 8.26594837,9.16075662 L30.380245,11.7847046 C30.888751,11.8446969 31.2529898,12.3074945 31.1915692,12.8160005 L29.2546756,29.1453274 C29.1946833,29.6538334 28.7333141,30.0180722 28.2233798,29.9580799 Z M26.5307405,25.7371946 L22.4541223,19.4408621 C22.184157,19.0252013 21.6042317,18.9566387 21.2457064,19.2994517 L20.4986597,20.0136455 C20.075857,20.4178792 19.3916593,20.3378895 19.0731289,19.8465242 L17.0548172,16.7283541 C16.6848648,16.156999 15.8863962,16.0641538 15.3936024,16.5340934 L8.31165678,23.3060789 C7.86457146,23.7345952 8.11596768,24.4887838 8.73017434,24.5644884 L25.9608138,26.6499343 C26.4607495,26.7099265 26.8049909,26.1585689 26.5307405,25.7371946 Z M28.1919552,15.909888 C28.1919552,16.9483258 27.3506349,17.789646 26.3121972,17.789646 C25.2737594,17.789646 24.4324391,16.9483258 24.4324391,15.909888 C24.4324391,14.8714502 25.2737594,14.0287015 26.3121972,14.0287015 C27.3506349,14.0287015 28.1919552,14.8714502 28.1919552,15.909888 Z"></path>
                </g>
            </g>
        </g>
    </g>
</svg>