<?xml version="1.0" encoding="UTF-8"?>
<svg viewBox="0 0 90 90" version="1.1" xmlns="http://www.w3.org/2000/svg" xmlns:xlink="http://www.w3.org/1999/xlink">
    <!-- Generator: Sketch 50.2 (55047) - http://www.bohemiancoding.com/sketch -->
    <title>countryside</title>
    <desc>Created with Sketch.</desc>
    <defs></defs>
    <g id="Website" stroke="none" stroke-width="1" fill="none" fill-rule="evenodd">
        <g id="01-smile-line-website-main" transform="translate(-501.000000, -1482.000000)">
            <g id="Group-18" transform="translate(0.000000, 1124.000000)">
                <g id="countryside" transform="translate(501.000000, 358.000000)">
                    <circle id="Oval-2" fill-opacity="0.111158288" fill="#4A90E2" cx="45" cy="45" r="45"></circle>
                    <g id="pin-point-map-pin-location-travel-location-path" opacity="0.649999976" transform="translate(14.000000, 14.000000)">
                        <path d="M45.6481481,6.44444444 C43.5755074,6.44444444 41.8888889,8.13106296 41.8888889,10.2037037 C41.8888889,12.2763444 43.5755074,13.962963 45.6481481,13.962963 C47.7207889,13.962963 49.4074074,12.2763444 49.4074074,10.2037037 C49.4074074,8.13106296 47.7207889,6.44444444 45.6481481,6.44444444 Z" id="Shape"></path>
                        <path d="M12.3518519,35.2787148 C10.2792111,35.2787148 8.59259259,36.9653333 8.59259259,39.0379741 C8.59259259,41.1106148 10.2792111,42.7972333 12.3518519,42.7972333 C14.4244926,42.7972333 16.1111111,41.1106148 16.1111111,39.0379741 C16.1111111,36.9653333 14.4244926,35.2787148 12.3518519,35.2787148 Z" id="Shape"></path>
                        <path d="M12.3518519,30.9824185 C6.72552963,30.9824185 2.14814815,35.5598 2.14814815,41.1861222 C2.14814815,47.0416519 10.0295963,56.5950037 12.3518519,56.5950037 C14.6741074,56.5950037 22.5555556,47.0416519 22.5555556,41.1861222 C22.5555556,35.5598 17.9781741,30.9824185 12.3518519,30.9824185 Z M12.3518519,44.9453815 C9.09450741,44.9453815 6.44444444,42.2953185 6.44444444,39.0379741 C6.44444444,35.7806296 9.09450741,33.1305667 12.3518519,33.1305667 C15.6091963,33.1305667 18.2592593,35.7806296 18.2592593,39.0379741 C18.2592593,42.2953185 15.6091963,44.9453815 12.3518519,44.9453815 Z" id="Shape"></path>
                        <path d="M45.6481481,2.14814815 C40.0218259,2.14814815 35.4444444,6.72552963 35.4444444,12.3518519 C35.4444444,18.2073815 43.3258926,27.7607333 45.6481481,27.7607333 C47.9704037,27.7607333 55.8518519,18.2073815 55.8518519,12.3518519 C55.8518519,6.72552963 51.2744704,2.14814815 45.6481481,2.14814815 Z M45.6481481,16.1111111 C42.3908037,16.1111111 39.7407407,13.4610481 39.7407407,10.2037037 C39.7407407,6.94635926 42.3908037,4.2962963 45.6481481,4.2962963 C48.9054926,4.2962963 51.5555556,6.94635926 51.5555556,10.2037037 C51.5555556,13.4610481 48.9054926,16.1111111 45.6481481,16.1111111 Z" id="Shape"></path>
                        <path d="M45.6481481,0 C38.8371222,0 33.2962963,5.54082593 33.2962963,12.3518519 C33.2962963,17.9414407 41.0507889,29.9088815 45.6481481,29.9088815 C50.2455074,29.9088815 58,17.9414407 58,12.3518519 C58,5.54082593 52.4591741,0 45.6481481,0 Z M45.6481481,27.7607333 C43.3258926,27.7607333 35.4444444,18.2073815 35.4444444,12.3518519 C35.4444444,6.72552963 40.0218259,2.14814815 45.6481481,2.14814815 C51.2744704,2.14814815 55.8518519,6.72552963 55.8518519,12.3518519 C55.8518519,18.2073815 47.9704037,27.7607333 45.6481481,27.7607333 Z" id="Shape" fill="#1C4386" fill-rule="nonzero"></path>
                        <path d="M12.3518519,28.8342704 C5.54082593,28.8342704 0,34.3750963 0,41.1861222 C0,46.7757111 7.75449259,58.7431519 12.3518519,58.7431519 C16.9492111,58.7431519 24.7037037,46.7757111 24.7037037,41.1861222 C24.7037037,34.3750963 19.1628778,28.8342704 12.3518519,28.8342704 Z M12.3518519,56.5950037 C10.0295963,56.5950037 2.14814815,47.0416519 2.14814815,41.1861222 C2.14814815,35.5598 6.72552963,30.9824185 12.3518519,30.9824185 C17.9781741,30.9824185 22.5555556,35.5598 22.5555556,41.1861222 C22.5555556,47.0416519 14.6741074,56.5950037 12.3518519,56.5950037 Z" id="Shape" fill="#1C4386" fill-rule="nonzero"></path>
                        <path d="M45.6481481,4.2962963 C42.3908037,4.2962963 39.7407407,6.94635926 39.7407407,10.2037037 C39.7407407,13.4610481 42.3908037,16.1111111 45.6481481,16.1111111 C48.9054926,16.1111111 51.5555556,13.4610481 51.5555556,10.2037037 C51.5555556,6.94635926 48.9054926,4.2962963 45.6481481,4.2962963 Z M45.6481481,13.962963 C43.5755074,13.962963 41.8888889,12.2763444 41.8888889,10.2037037 C41.8888889,8.13106296 43.5755074,6.44444444 45.6481481,6.44444444 C47.7207889,6.44444444 49.4074074,8.13106296 49.4074074,10.2037037 C49.4074074,12.2763444 47.7207889,13.962963 45.6481481,13.962963 Z" id="Shape" fill="#1C4386" fill-rule="nonzero"></path>
                        <path d="M12.3518519,33.1305667 C9.09450741,33.1305667 6.44444444,35.7806296 6.44444444,39.0379741 C6.44444444,42.2953185 9.09450741,44.9453815 12.3518519,44.9453815 C15.6091963,44.9453815 18.2592593,42.2953185 18.2592593,39.0379741 C18.2592593,35.7806296 15.6091963,33.1305667 12.3518519,33.1305667 Z M12.3518519,42.7972333 C10.2792111,42.7972333 8.59259259,41.1106148 8.59259259,39.0379741 C8.59259259,36.9653333 10.2792111,35.2787148 12.3518519,35.2787148 C14.4244926,35.2787148 16.1111111,36.9653333 16.1111111,39.0379741 C16.1111111,41.1106148 14.4244926,42.7972333 12.3518519,42.7972333 Z" id="Shape" fill="#1C4386" fill-rule="nonzero"></path>
                        <path d="M41.9858778,46.1280444 C41.6356222,45.7687667 41.2637778,45.4032593 40.8803333,45.0272259 C40.263063,44.4203741 39.6148593,43.784737 38.9844852,43.0977593 C38.5833185,42.661363 37.9036444,42.6309667 37.4667111,43.0326704 C37.0298852,43.4339444 37.0004556,44.1136185 37.4017296,44.5504444 C38.0641111,45.2721148 38.7306815,45.9266556 39.3752333,46.5596074 C39.7470778,46.9246852 40.1078593,47.279237 40.4482333,47.6279889 C40.658537,47.8439852 40.9380111,47.952037 41.2170556,47.952037 C41.4877222,47.952037 41.7582815,47.8503222 41.9670815,47.6467852 C42.3918778,47.2325148 42.4002556,46.5523037 41.9858778,46.1280444 Z" id="Shape" fill="#1C4386" fill-rule="nonzero"></path>
                        <path d="M38.6189778,56.1549556 C37.5653111,56.7198111 36.2971519,57.1860667 34.8491926,57.5411556 C34.2733815,57.6821815 33.9208704,58.2637926 34.0620037,58.8401407 C34.1820852,59.330563 34.6210593,59.658263 35.1040704,59.658263 C35.1890296,59.658263 35.275063,59.6483815 35.3610963,59.6273296 C36.9837,59.2292778 38.4212407,58.6980407 39.6332259,58.0482259 C40.1560852,57.7682148 40.3527481,57.1167889 40.072737,56.5944667 C39.7926185,56.0710704 39.140763,55.8738704 38.6189778,56.1549556 Z" id="Shape" fill="#1C4386" fill-rule="nonzero"></path>
                        <path d="M43.3306185,49.3559593 C42.7537333,49.4954815 42.3997185,50.0761259 42.5387037,50.6524741 C42.5869296,50.8506407 42.6100222,51.0416111 42.6100222,51.236663 C42.6100222,51.9792778 42.2618074,52.7859074 41.5454,53.7037037 C41.1803222,54.1710333 41.2632407,54.8459815 41.731,55.2109519 C41.9271259,55.3641148 42.1599852,55.4385481 42.3913407,55.4385481 C42.710663,55.4385481 43.0264407,55.2969852 43.2382481,55.0253519 C44.2609815,53.7157333 44.7581704,52.4764667 44.7581704,51.236663 C44.7581704,50.8742704 44.7141333,50.5082259 44.6270259,50.1479815 C44.4880407,49.5709889 43.9038519,49.2196593 43.3306185,49.3559593 Z" id="Shape" fill="#1C4386" fill-rule="nonzero"></path>
                        <path d="M34.6414667,33.1205778 C34.8051556,33.2097259 34.9818407,33.2522593 35.1559481,33.2522593 C35.5361704,33.2522593 35.904363,33.0503333 36.0995222,32.6937407 C36.8116333,31.3909963 37.8904333,30.4831889 38.6703185,29.9508778 C39.1602037,29.6167333 39.2860852,28.9481222 38.9514037,28.458237 C38.6184407,27.9679222 37.9486481,27.8425778 37.4588704,28.1771519 C36.4850074,28.8421111 35.1318889,29.986537 34.2146296,31.6626296 C33.9297852,32.1829111 34.1212926,32.8358407 34.6414667,33.1205778 Z" id="Shape" fill="#1C4386" fill-rule="nonzero"></path>
                        <path d="M30.7642741,58.2139556 C29.4562667,58.3409111 28.0460074,58.4075037 26.5728074,58.4122296 C25.9797037,58.4138407 25.5003444,58.8963148 25.5019556,59.4894185 C25.5034593,60.0815556 25.9844296,60.5603778 26.5760296,60.5603778 C26.5769963,60.5603778 26.5780704,60.5603778 26.5791444,60.5603778 C28.1194741,60.5556519 29.5974,60.4854074 30.9718926,60.3516852 C31.5624185,60.294437 31.9946259,59.769537 31.9369481,59.1790111 C31.8792704,58.5879481 31.3568407,58.153163 30.7642741,58.2139556 Z" id="Shape" fill="#1C4386" fill-rule="nonzero"></path>
                        <path d="M22.3557778,58.2674444 C19.8871259,58.0960222 18.1915926,57.8295444 18.174837,57.8264296 C17.5885,57.7382481 17.0388963,58.1326481 16.9455593,58.7184481 C16.8521148,59.3043556 17.2512407,59.8550333 17.8370407,59.9483704 C17.9094333,59.9593259 19.6359,60.2320333 22.2068037,60.4103296 C22.231937,60.4119407 22.2571778,60.4130148 22.2823111,60.4130148 C22.8413667,60.4130148 23.3134222,59.9798407 23.3527333,59.4133741 C23.3936556,58.821237 22.9472704,58.3083667 22.3557778,58.2674444 Z" id="Shape" fill="#1C4386" fill-rule="nonzero"></path>
                        <path d="M33.2491444,36.4241074 C33.3487111,37.4756259 33.6392481,38.5691407 34.1129148,39.6752222 C34.2927148,40.0967963 34.492063,40.5022593 34.7065556,40.8930074 C34.9016074,41.249063 35.269263,41.4504519 35.6489481,41.4504519 C35.8235926,41.4504519 36.0009222,41.4079185 36.1645037,41.3178037 C36.6847852,41.0324222 36.8751111,40.3794926 36.5893,39.8597481 C36.4084259,39.5299 36.2405481,39.1874852 36.0879222,38.8302481 C35.7019,37.9287778 35.466463,37.0508296 35.3878407,36.2216444 C35.3316667,35.6305815 34.8082704,35.1995556 34.2172074,35.2535815 C33.6261444,35.3096481 33.1929704,35.8335815 33.2491444,36.4241074 Z" id="Shape" fill="#1C4386" fill-rule="nonzero"></path>
                    </g>
                </g>
            </g>
        </g>
    </g>
</svg>