<?xml version="1.0" encoding="UTF-8"?>
<svg viewBox="0 0 90 90" version="1.1" xmlns="http://www.w3.org/2000/svg" xmlns:xlink="http://www.w3.org/1999/xlink">
    <!-- Generator: Sketch 50.2 (55047) - http://www.bohemiancoding.com/sketch -->
    <title>entertain</title>
    <desc>Created with Sketch.</desc>
    <defs></defs>
    <g id="Website" stroke="none" stroke-width="1" fill="none" fill-rule="evenodd">
        <g id="01-smile-line-website-main" transform="translate(-238.000000, -1482.000000)">
            <g id="Group-18" transform="translate(0.000000, 1124.000000)">
                <g id="entertain" transform="translate(238.000000, 358.000000)">
                    <circle id="Oval-2" fill-opacity="0.111158288" fill="#4A90E2" cx="45" cy="45" r="45"></circle>
                    <g id="shinesunset-sun-heat-warm" opacity="0.649999976" transform="translate(15.000000, 15.000000)" fill="#1C4386" fill-rule="nonzero" stroke="#1C4386" stroke-width="0.5">
                        <path d="M42.8507586,18.1388276 C42.5860345,18.1388276 42.3213103,18.0377586 42.1192759,17.8357241 C41.7152069,17.4316552 41.7152069,16.7770345 42.1192759,16.3728621 L47.4144828,11.0782759 C47.8185517,10.6742069 48.4731724,10.6742069 48.8772414,11.0782759 C49.2814138,11.4823448 49.2814138,12.1369655 48.8772414,12.5410345 L43.5821379,17.8357241 C43.3801034,18.0377586 43.1153793,18.1388276 42.8507586,18.1388276 Z M16.0849655,17.8357241 L10.7898621,12.5410345 C10.3857931,12.1369655 10.3857931,11.4823448 10.7898621,11.0782759 C11.193931,10.6742069 11.8485517,10.6742069 12.2526207,11.0782759 L17.5478276,16.3728621 C17.9518966,16.7770345 17.9518966,17.4316552 17.5478276,17.8357241 C17.3457931,18.0377586 17.081069,18.1388276 16.8164483,18.1388276 C16.5517241,18.1388276 16.287,18.0377586 16.0849655,17.8357241 Z M16.0849655,42.4076897 C16.4891379,42.0036207 17.1437586,42.0036207 17.5478276,42.4076897 C17.9518966,42.8118621 17.9518966,43.4664828 17.5478276,43.8705517 L12.2526207,49.1657586 C12.0505862,49.3677931 11.7859655,49.4687586 11.5212414,49.4687586 C11.2565172,49.4687586 10.9918966,49.3677931 10.7898621,49.1657586 C10.3857931,48.7615862 10.3857931,48.1069655 10.7898621,47.7028966 L16.0849655,42.4076897 Z M43.5821379,42.4076897 L48.8772414,47.7028966 C49.2814138,48.1069655 49.2814138,48.7615862 48.8772414,49.1657586 C48.6752069,49.3677931 48.4105862,49.4687586 48.1458621,49.4687586 C47.8812414,49.4687586 47.6165172,49.3677931 47.4144828,49.1657586 L42.1192759,43.8705517 C41.7152069,43.4664828 41.7152069,42.8118621 42.1192759,42.4076897 C42.5234483,42.0036207 43.178069,42.0036207 43.5821379,42.4076897 Z M30,14.4610345 C38.5562069,14.4610345 45.5172414,21.422069 45.5172414,29.9782759 C45.5172414,38.5344828 38.5562069,45.4955172 30,45.4955172 C21.4437931,45.4955172 14.4827586,38.5344828 14.4827586,29.9782759 C14.4827586,21.422069 21.4437931,14.4610345 30,14.4610345 Z M58.9655172,28.9655172 C59.5367586,28.9655172 60,29.4286552 60,30 C60,30.5712414 59.5367586,31.0344828 58.9655172,31.0344828 L48.1251724,31.0344828 C47.553931,31.0344828 47.0906897,30.5712414 47.0906897,30 C47.0906897,29.4286552 47.553931,28.9655172 48.1251724,28.9655172 L58.9655172,28.9655172 Z M12.9093103,30 C12.9093103,30.5712414 12.4461724,31.0344828 11.8748276,31.0344828 L1.03448276,31.0344828 C0.463241379,31.0344828 0,30.5712414 0,30 C0,29.4286552 0.463241379,28.9655172 1.03448276,28.9655172 L11.8748276,28.9655172 C12.4461724,28.9655172 12.9093103,29.4286552 12.9093103,30 Z M30,47.0906897 C30.5712414,47.0906897 31.0344828,47.5538276 31.0344828,48.1251724 L31.0344828,58.9655172 C31.0344828,59.5367586 30.5712414,60 30,60 C29.4287586,60 28.9655172,59.5367586 28.9655172,58.9655172 L28.9655172,48.1251724 C28.9655172,47.5538276 29.4287586,47.0906897 30,47.0906897 Z M30,12.9093103 C29.4287586,12.9093103 28.9655172,12.446069 28.9655172,11.8748276 L28.9655172,1.03448276 C28.9655172,0.463137931 29.4287586,0 30,0 C30.5712414,0 31.0344828,0.463137931 31.0344828,1.03448276 L31.0344828,11.8748276 C31.0344828,12.446069 30.5712414,12.9093103 30,12.9093103 Z M30,16.53 C22.5843103,16.53 16.5517241,22.5625862 16.5517241,29.9782759 C16.5517241,37.3939655 22.5843103,43.4265517 30,43.4265517 C37.4156897,43.4265517 43.4482759,37.3939655 43.4482759,29.9782759 C43.4482759,22.5625862 37.4156897,16.53 30,16.53 Z" id="Combined-Shape"></path>
                    </g>
                </g>
            </g>
        </g>
    </g>
</svg>