<?xml version="1.0" encoding="UTF-8"?>
<svg viewBox="0 0 90 90" version="1.1" xmlns="http://www.w3.org/2000/svg" xmlns:xlink="http://www.w3.org/1999/xlink">
    <!-- Generator: Sketch 50.2 (55047) - http://www.bohemiancoding.com/sketch -->
    <title>guides</title>
    <desc>Created with Sketch.</desc>
    <defs></defs>
    <g id="Website" stroke="none" stroke-width="1" fill="none" fill-rule="evenodd">
        <g id="01-smile-line-website-main" transform="translate(-1095.000000, -1274.000000)">
            <g id="Group-18" transform="translate(0.000000, 1124.000000)">
                <g id="guides" transform="translate(1095.000000, 150.000000)">
                    <circle id="Oval-2" fill-opacity="0.111158288" fill="#4A90E2" cx="45" cy="45" r="45"></circle>
                    <g id="geek-character-avatar-smileface-profile" opacity="0.649999976" transform="translate(14.000000, 22.000000)" fill="#1C4386" fill-rule="nonzero">
                        <path d="M37.8540773,28.1201717 C37.8540773,30.5056275 35.9138665,32.4463519 33.527897,32.4463519 L32.4463519,32.4463519 L32.4463519,34.6094421 L33.527897,34.6094421 C37.10627,34.6094421 40.0171674,31.6985717 40.0171674,28.1201717 L40.0171674,27.0386266 L37.8540773,27.0386266 L37.8540773,28.1201717 Z" id="Shape"></path>
                        <path d="M57.3218884,37.8540773 L57.3218884,20.0085837 C57.3218884,8.97552618 48.3430906,0 37.3068966,0 L25.4226631,0 C14.3864691,0 5.40772532,8.97552618 5.40772532,20.0085837 L5.40772532,37.8540773 L0,37.8540773 L0,40.0171674 L6.48927039,40.0171674 L56.2403433,40.0171674 L62.7676571,40.0171674 L62.7676571,37.8540773 L57.3218884,37.8540773 Z M7.57081545,37.8540773 L7.57081545,20.0085837 C7.57081545,10.1685785 15.5788725,2.16309013 25.4226631,2.16309013 L37.3068966,2.16309013 C47.1506871,2.16309013 55.1587983,10.1685785 55.1587983,20.0085837 L55.1587983,37.8540773 L7.57081545,37.8540773 Z" id="Shape"></path>
                        <path d="M47.5879828,11.8969957 L33.527897,11.8969957 C32.9301,11.8969957 32.4463519,12.3813116 32.4463519,12.9785408 L30.2832618,12.9785408 C30.2832618,12.3813116 29.7994597,11.8969957 29.2017167,11.8969957 L15.1416309,11.8969957 C14.5438339,11.8969957 14.0600858,12.3813116 14.0600858,12.9785408 L14.0600858,18.3862661 C14.0600858,21.9646661 16.9751472,24.8755365 20.5577652,24.8755365 L23.7855283,24.8755365 C27.3681464,24.8755365 30.2832618,21.9646661 30.2832618,18.3862661 L30.2832618,15.1416309 L32.4463519,15.1416309 L32.4463519,18.3862661 C32.4463519,21.9646661 35.3614133,24.8755365 38.9440313,24.8755365 L42.1717944,24.8755365 C45.7544124,24.8755365 48.6695279,21.9646661 48.6695279,18.3862661 L48.6695279,12.9785408 C48.6695279,12.3813116 48.1857258,11.8969957 47.5879828,11.8969957 Z M28.1201717,18.3862661 C28.1201717,20.7717219 26.1756348,22.7124464 23.7855283,22.7124464 L20.5577652,22.7124464 C18.1676588,22.7124464 16.223176,20.7717219 16.223176,18.3862661 L16.223176,14.0600858 L28.1201717,14.0600858 L28.1201717,15.1416309 L28.1201717,18.3862661 Z M46.5064378,18.3862661 C46.5064378,20.7717219 44.5619009,22.7124464 42.1717944,22.7124464 L38.9440313,22.7124464 C36.5539249,22.7124464 34.6094421,20.7717219 34.6094421,18.3862661 L34.6094421,14.0600858 L46.5064378,14.0600858 L46.5064378,18.3862661 Z" id="Shape"></path>
                    </g>
                </g>
            </g>
        </g>
    </g>
</svg>