<?xml version="1.0" encoding="UTF-8"?>
<svg viewBox="0 0 90 90" version="1.1" xmlns="http://www.w3.org/2000/svg" xmlns:xlink="http://www.w3.org/1999/xlink">
    <!-- Generator: Sketch 50.2 (55047) - http://www.bohemiancoding.com/sketch -->
    <title>languages</title>
    <desc>Created with Sketch.</desc>
    <defs></defs>
    <g id="Website" stroke="none" stroke-width="1" fill="none" fill-rule="evenodd">
        <g id="01-smile-line-website-main" transform="translate(-797.000000, -1482.000000)">
            <g id="Group-18" transform="translate(0.000000, 1124.000000)">
                <g id="languages" transform="translate(797.000000, 358.000000)">
                    <circle id="Oval-2" fill-opacity="0.111158288" fill="#4A90E2" cx="45" cy="45" r="45"></circle>
                    <g id="earthstar-space-universe-s" opacity="0.649999976" transform="translate(20.000000, 20.000000)" fill="#1C4386" fill-rule="nonzero">
                        <path d="M24.4843,0.847625 C11.4514747,0.847625 0.847525,11.4516404 0.847525,24.4844 C0.847525,37.5172253 11.4514747,48.121175 24.4843,48.121175 C37.5170596,48.121175 48.121075,37.5172253 48.121075,24.4844 C48.121075,11.4516404 37.5170596,0.847625 24.4843,0.847625 Z M7.10519704,12.6944095 C7.90740292,13.1714784 10.0789988,14.5220574 11.7092469,16.1015193 C12.8480142,17.2055865 13.3724879,18.0109767 13.3609322,18.6341997 C13.3520027,19.1637948 12.944137,19.7947654 12.1516485,20.5091212 C11.0655387,21.4875524 10.6012074,22.7211294 10.8462419,23.9842524 C11.3360484,26.5170642 14.4868306,28.5072806 17.2708487,29.5266822 C19.1495784,30.2128053 19.9293293,30.7577642 20.2434358,31.0412742 C18.3155942,31.7822871 11.0286391,31.5338383 4.44041329,30.7808757 C3.81417006,28.7918411 3.47383333,26.6773675 3.47383333,24.4844328 C3.47383333,20.1171447 4.81558143,16.0587104 7.10519704,12.6944095 Z M5.55912215,33.5492674 C8.30463205,33.8403936 11.8265115,34.1304694 14.9754552,34.1304694 C18.3134931,34.1304694 21.2283014,33.8048072 22.3414622,32.8095676 C22.8183998,32.383843 23.076172,31.818366 23.0698688,31.2181561 C23.0428178,29.0855937 20.2627392,27.823751 18.1736422,27.0593968 C15.3370979,26.0233182 13.6097749,24.4433311 13.4250141,23.4855165 C13.3955994,23.3353901 13.3275781,22.9840229 13.9085175,22.4608294 C15.2832586,21.2220326 15.9628158,19.9871424 15.9872405,18.6828849 C16.0205946,16.8722094 14.7677142,15.4090931 13.5379454,14.2164865 C11.8848156,12.6149636 9.80267833,11.2616269 8.74335686,10.6152925 C12.5963153,6.24774171 18.2161884,3.47393333 24.4843,3.47393333 C29.364342,3.47393333 33.8497155,5.16110664 37.4202802,7.96298368 C37.1061737,9.10884201 35.9810632,12.0161653 32.3734348,13.649565 C27.8645886,15.6911586 27.0516149,16.0592029 27.2106379,19.4280014 C27.2284967,19.8114424 27.2491133,20.2564704 27.2542346,20.7809441 C27.2824674,23.8060574 29.2471102,24.9486328 30.9808348,25.95661 C32.0811267,26.59651 33.2185808,27.2582084 34.1572234,28.4430674 C35.7730596,30.4821332 35.8731219,32.1042725 35.9794874,33.8226661 C36.0282383,34.6151546 36.0795498,35.433381 36.2924121,36.251476 C36.7321874,37.9407175 37.822368,39.2186792 38.6273315,39.9762378 C34.8897336,43.3914892 29.9339883,45.4948667 24.4843,45.4948667 C16.1482332,45.4948667 8.95201706,40.602481 5.55912215,33.5492674 Z M40.4577371,38.0976394 C39.9076568,37.5877417 39.1238351,36.7021505 38.834022,35.5897448 C38.6853729,35.017899 38.6455843,34.3882087 38.6007073,33.6611481 C38.4865614,31.8055299 38.3429023,29.4972675 36.2167744,26.8119986 C34.9690153,25.238446 33.4890906,24.377936 32.3002921,23.686823 C30.5896462,22.6917148 29.8945937,22.2286966 29.8805429,20.7553376 C29.8754216,20.1935703 29.8536232,19.7165014 29.8343199,19.3049588 C29.7586822,17.7160423 29.7586822,17.7160423 33.4557693,16.0425586 C37.0926482,14.3965199 38.7759805,11.7084933 39.5369862,9.85825909 C43.2168053,13.6444765 45.4947667,18.8003137 45.4947667,24.4844 C45.4947667,29.677301 43.5909229,34.4269796 40.4577371,38.0976394 Z" id="Shape"></path>
                    </g>
                </g>
            </g>
        </g>
    </g>
</svg>