<?xml version="1.0" encoding="UTF-8"?>
<svg viewBox="0 0 90 90" version="1.1" xmlns="http://www.w3.org/2000/svg" xmlns:xlink="http://www.w3.org/1999/xlink">
    <!-- Generator: Sketch 50.2 (55047) - http://www.bohemiancoding.com/sketch -->
    <title>price</title>
    <desc>Created with Sketch.</desc>
    <defs></defs>
    <g id="Website" stroke="none" stroke-width="1" fill="none" fill-rule="evenodd">
        <g id="01-smile-line-website-main" transform="translate(-238.000000, -1274.000000)">
            <g id="Group-18" transform="translate(0.000000, 1124.000000)">
                <g id="price" transform="translate(238.000000, 150.000000)">
                    <circle id="Oval-2" fill-opacity="0.111158288" fill="#4A90E2" cx="45" cy="45" r="45"></circle>
                    <g id="like-voteup-accept-agree" opacity="0.649999976" transform="translate(14.000000, 17.000000)" fill="#1C4386" fill-rule="nonzero">
                        <path d="M58.5818991,17.9505792 C58.4859745,17.920866 58.3865406,17.9037868 58.2860538,17.8991953 L42.2423255,17.1966358 C42.4581557,16.8538811 42.7004528,16.4666736 42.9687783,16.0359491 C43.6246038,14.9849906 44.3202613,13.8700434 44.8412075,13.0886094 C46.0281858,11.3087415 46.9649708,9.90353491 46.9649708,7.76044057 C46.9649708,3.85236415 46.2520877,1.38932642 44.8457406,0.438854717 C44.3226009,0.0835830189 43.4440726,-0.236243396 42.2617736,0.241273585 C40.4761443,0.959771698 39.6467481,2.84480566 38.7682491,4.84167358 C37.9023547,6.8088283 37.0067472,8.84348113 35.2188075,9.61005849 C31.3679057,11.2596094 24.1536792,19.2529302 22.4537094,21.1744623 L14.0377358,21.1744623 L14.0377358,17.7038368 C14.0377358,17.0573113 13.51445,16.5340255 12.8679245,16.5340255 L1.16981132,16.5340255 C0.523227358,16.5340255 0,17.0573113 0,17.7038368 L0,45.7793085 C0,46.4258925 0.523227358,46.9491198 1.16981132,46.9491198 L12.8679245,46.9491198 C13.51445,46.9491198 14.0377358,46.4258925 14.0377358,45.7793085 L14.0377358,42.5886774 L23.2328915,42.5886774 C25.9002953,44.5352434 30.7041255,45.6971 30.9153934,45.7474019 C31.004533,45.7690434 31.0959245,45.7793085 31.1873745,45.7793085 L47.1705066,45.7793085 C49.8425896,45.7793085 51.6373142,44.0269311 51.6373142,41.418866 C51.6373142,40.4763491 51.1952425,39.7622962 50.5543028,39.2219604 C50.7542236,39.2048811 50.9279406,39.1957566 51.0660953,39.1957566 C54.0055094,39.1957566 55.905283,37.5712396 55.905283,35.0579877 C55.905283,33.9464623 55.5957217,33.0964774 55.1582123,32.4636094 C56.4707406,32.0843274 57.9284425,30.9704623 57.9284425,28.8341528 C57.9284425,27.6335755 57.5629057,26.7185491 57.1059481,26.0421642 C57.8097358,26.0330396 58.3123745,26.0273075 58.43345,26.0273075 C59.6443217,26.0273075 62,24.5753085 62,21.9124962 C62,19.6230585 59.8511443,18.3448057 58.5818991,17.9505792 Z M11.6981132,44.6094972 L2.33962264,44.6094972 L2.33962264,18.8736481 L11.6981132,18.8736481 L11.6981132,22.3442736 L11.6981132,41.418866 L11.6981132,44.6094972 Z M58.4322802,23.6876849 C57.8931142,23.6876849 50.1556604,23.797384 50.1556604,23.797384 C49.5398425,23.8065377 49.0361509,24.2920094 49.0040689,24.9066283 C48.9733028,25.522417 49.4245283,26.0570208 50.0367783,26.1289642 L54.4659179,26.6488283 C54.8029406,26.8647755 55.5888198,27.5101604 55.5888198,28.8341528 C55.5888198,30.0154283 54.6109745,30.2359377 54.1071368,30.2850698 L49.3605104,31.0195943 C48.7516236,31.114466 48.3198462,31.6650962 48.3745934,32.2796858 C48.4294575,32.8931642 48.8944575,33.3603868 49.5684151,33.3455302 L52.6038123,33.272417 C52.9065594,33.3980255 53.5656604,33.8150925 53.5656604,35.0579877 C53.5656604,36.5442623 52.2061934,36.856134 51.0660953,36.856134 C49.6495708,36.856134 45.9915708,37.5335717 45.5792123,37.6112472 C45.0079934,37.717466 44.601367,38.2292585 44.6264009,38.8107425 C44.6515519,39.3921387 45.1005255,39.8674623 45.6796991,39.9245491 C47.3087783,40.0868019 49.2976915,40.8076104 49.2976915,41.418866 C49.2976915,43.0890057 48.1403972,43.4396858 47.1705066,43.4396858 L31.3278689,43.4396858 C29.8598726,43.0753189 26.1116802,41.9362736 24.3706792,40.5128179 C24.1616047,40.3426396 23.9000349,40.2490547 23.6303934,40.2490547 L14.0377358,40.2490547 L14.0377358,23.5140849 L22.9838387,23.5140849 C23.323084,23.5140849 23.64525,23.3666887 23.8668123,23.1108509 C26.2111142,20.4124472 32.9854915,13.1125906 36.1396538,11.7599377 C38.7762915,10.630134 39.9094877,8.05523302 40.9090915,5.78407358 C41.5910915,4.23617925 42.2342538,2.77391509 43.1344528,2.41174151 C43.4177519,2.29976132 43.5011594,2.35465472 43.5366047,2.37746604 C44.0609434,2.73168491 44.6253481,4.56746981 44.6253481,7.76044057 C44.6253481,9.13359434 44.063283,10.0372736 42.8946415,11.7908208 C42.3634009,12.5882519 41.6527406,13.7260396 40.9845736,14.796417 C40.2705208,15.9411943 39.4617132,17.2366434 39.215,17.5473453 C38.941966,17.8923226 38.8847623,18.3607151 39.066434,18.7605566 C39.2492755,19.1603981 39.6410453,19.4243075 40.0797245,19.4437264 L58.0039538,20.2285528 C58.4049358,20.3872962 59.6604066,20.9620245 59.6604066,21.9124962 C59.6603774,23.2559075 58.3831481,23.6842925 58.4322802,23.6876849 Z" id="Shape"></path>
                        <path d="M7.01886792,20.0434594 C5.7291217,20.0434594 4.67924528,21.0933943 4.67924528,22.3830821 C4.67924528,23.6728283 5.7291217,24.7227047 7.01886792,24.7227047 C8.30855566,24.7227047 9.35849057,23.6728283 9.35849057,22.3830821 C9.35849057,21.0933943 8.30855566,20.0434594 7.01886792,20.0434594 Z" id="Shape"></path>
                    </g>
                </g>
            </g>
        </g>
    </g>
</svg>