<?xml version="1.0" encoding="UTF-8"?>
<svg viewBox="0 0 90 90" version="1.1" xmlns="http://www.w3.org/2000/svg" xmlns:xlink="http://www.w3.org/1999/xlink">
    <!-- Generator: Sketch 50.2 (55047) - http://www.bohemiancoding.com/sketch -->
    <title>reservation</title>
    <desc>Created with Sketch.</desc>
    <defs></defs>
    <g id="Website" stroke="none" stroke-width="1" fill="none" fill-rule="evenodd">
        <g id="01-smile-line-website-main" transform="translate(-1095.000000, -1482.000000)">
            <g id="Group-18" transform="translate(0.000000, 1124.000000)">
                <g id="reservation" transform="translate(1095.000000, 358.000000)">
                    <circle id="Oval-2" fill-opacity="0.111158288" fill="#4A90E2" cx="45" cy="45" r="45"></circle>
                    <g id="markedcalendar-schedule-program-day-year" opacity="0.649999976" transform="translate(17.000000, 20.000000)">
                        <path d="M2.07407407,48.7407407 L53.9259259,48.7407407 L53.9259259,18.6666667 L2.07407407,18.6666667 L2.07407407,48.7407407 Z M41.1776296,40.1405926 L37.5110815,43.8067259 C37.3085481,44.0092593 37.0431704,44.1105778 36.7778963,44.1105778 C36.5125185,44.1105778 36.2471407,44.0092593 36.0446074,43.8067259 C35.6395407,43.4016593 35.6395407,42.7453185 36.0446074,42.3402519 L39.7112593,38.6742222 C40.1163259,38.2690519 40.772563,38.2690519 41.1776296,38.6742222 C41.5828,39.0793148 41.5828,39.7355259 41.1776296,40.1405926 Z M46.4149778,25.7476593 L50.0816296,22.0816296 C50.4866963,21.6764593 51.1429333,21.6764593 51.548,22.0816296 C51.9531704,22.4866963 51.9531704,23.1429593 51.548,23.548 L47.8814519,27.2141333 C47.6789185,27.4166667 47.4135407,27.5179852 47.1482667,27.5179852 C46.8828889,27.5179852 46.6175111,27.4166667 46.4149778,27.2141333 C46.0099111,26.8090667 46.0099111,26.1527259 46.4149778,25.7476593 Z M46.4149778,34.0439556 L50.0816296,30.3779259 C50.4866963,29.9727556 51.1429333,29.9727556 51.548,30.3779259 C51.9531704,30.7829926 51.9531704,31.4392556 51.548,31.8442963 L47.8814519,35.5104296 C47.6789185,35.712963 47.4135407,35.8142815 47.1482667,35.8142815 C46.8828889,35.8142815 46.6175111,35.712963 46.4149778,35.5104296 C46.0099111,35.105363 46.0099111,34.4490222 46.4149778,34.0439556 Z M46.4149778,42.3402519 L50.0816296,38.6742222 C50.4866963,38.2690519 51.1429333,38.2690519 51.548,38.6742222 C51.9531704,39.0793148 51.9531704,39.7355259 51.548,40.1405926 L47.8814519,43.8067259 C47.6789185,44.0092593 47.4135407,44.1105778 47.1482667,44.1105778 C46.8828889,44.1105778 46.6175111,44.0092593 46.4149778,43.8067259 C46.0099111,43.4016593 46.0099111,42.7453185 46.4149778,42.3402519 Z M36.0446074,25.7476593 L39.7112593,22.0816296 C40.1163259,21.6764593 40.772563,21.6764593 41.1776296,22.0816296 C41.5828,22.4866963 41.5828,23.1429593 41.1776296,23.548 L37.5110815,27.2141333 C37.3085481,27.4166667 37.0431704,27.5179852 36.7778963,27.5179852 C36.5125185,27.5179852 36.2471407,27.4166667 36.0446074,27.2141333 C35.6395407,26.8090667 35.6395407,26.1527259 36.0446074,25.7476593 Z M35.5631111,30.3779259 C35.9681778,29.9727556 36.6244148,29.9727556 37.0294815,30.3779259 L38.3703704,31.7186074 L39.7112593,30.3779259 C40.1163259,29.9727556 40.772563,29.9727556 41.1776296,30.3779259 C41.5828,30.7829926 41.5828,31.4392556 41.1776296,31.8442963 L39.8369481,33.1848741 L40.6961333,34.0439556 C41.1012,34.4490222 41.1012,35.105363 40.6961333,35.5104296 C40.4936,35.712963 40.2282222,35.8142815 39.9628444,35.8142815 C39.6975704,35.8142815 39.4321926,35.712963 39.2296593,35.5104296 L38.3703704,34.6512444 L37.5110815,35.5104296 C37.3085481,35.712963 37.0431704,35.8142815 36.7778963,35.8142815 C36.5125185,35.8142815 36.2471407,35.712963 36.0446074,35.5104296 C35.6395407,35.105363 35.6395407,34.4490222 36.0446074,34.0439556 L36.9037926,33.1848741 L35.5631111,31.8442963 C35.1579407,31.4392296 35.1579407,30.7829926 35.5631111,30.3779259 Z M25.674237,25.7476593 L29.3408889,22.0816296 C29.7459556,21.6764593 30.4021926,21.6764593 30.8072593,22.0816296 C31.2124296,22.4866963 31.2124296,23.1429593 30.8072593,23.548 L27.1407111,27.2141333 C26.9381778,27.4166667 26.6728,27.5179852 26.4075259,27.5179852 C26.1421481,27.5179852 25.8767704,27.4166667 25.674237,27.2141333 C25.2691704,26.8090667 25.2691704,26.1527259 25.674237,25.7476593 Z M25.674237,34.0439556 L29.3408889,30.3779259 C29.7459556,29.9727556 30.4021926,29.9727556 30.8072593,30.3779259 C31.2124296,30.7829926 31.2124296,31.4392556 30.8072593,31.8442963 L27.1407111,35.5104296 C26.9381778,35.712963 26.6728,35.8142815 26.4075259,35.8142815 C26.1421481,35.8142815 25.8767704,35.712963 25.674237,35.5104296 C25.2691704,35.105363 25.2691704,34.4490222 25.674237,34.0439556 Z M25.1927407,38.6742222 C25.5978074,38.2690519 26.2540444,38.2690519 26.6591111,38.6742222 L28,40.0149037 L29.3408889,38.6742222 C29.7459556,38.2690519 30.4021926,38.2690519 30.8072593,38.6742222 C31.2124296,39.0793148 31.2124296,39.7355259 30.8072593,40.1405926 L29.4665778,41.4811704 L30.325763,42.3402519 C30.7308296,42.7453185 30.7308296,43.4016593 30.325763,43.8067259 C30.1232296,44.0092593 29.8578519,44.1105778 29.5924741,44.1105778 C29.3272,44.1105778 29.0618222,44.0092593 28.8592889,43.8067259 L28,42.9475407 L27.1407111,43.8067259 C26.9381778,44.0092593 26.6728,44.1105778 26.4075259,44.1105778 C26.1421481,44.1105778 25.8767704,44.0092593 25.674237,43.8067259 C25.2691704,43.4016593 25.2691704,42.7453185 25.674237,42.3402519 L26.5334222,41.4811704 L25.1927407,40.1405926 C24.7875704,39.7355259 24.7875704,39.0793148 25.1927407,38.6742222 Z M15.3038667,25.7476593 L18.9705185,22.0816296 C19.3755852,21.6764593 20.0318222,21.6764593 20.4368889,22.0816296 C20.8420593,22.4866963 20.8420593,23.1429593 20.4368889,23.548 L16.7703407,27.2141333 C16.5678074,27.4166667 16.3024296,27.5179852 16.0371556,27.5179852 C15.7717778,27.5179852 15.5064,27.4166667 15.3038667,27.2141333 C14.8988,26.8090667 14.8988,26.1527259 15.3038667,25.7476593 Z M15.3038667,34.0439556 L18.9705185,30.3779259 C19.3755852,29.9727556 20.0318222,29.9727556 20.4368889,30.3779259 C20.8420593,30.7829926 20.8420593,31.4392556 20.4368889,31.8442963 L16.7703407,35.5104296 C16.5678074,35.712963 16.3024296,35.8142815 16.0371556,35.8142815 C15.7717778,35.8142815 15.5064,35.712963 15.3038667,35.5104296 C14.8988,35.105363 14.8988,34.4490222 15.3038667,34.0439556 Z M15.3038667,42.3402519 L18.9705185,38.6742222 C19.3755852,38.2690519 20.0318222,38.2690519 20.4368889,38.6742222 C20.8420593,39.0793148 20.8420593,39.7355259 20.4368889,40.1405926 L16.7703407,43.8067259 C16.5678074,44.0092593 16.3024296,44.1105778 16.0371556,44.1105778 C15.7717778,44.1105778 15.5064,44.0092593 15.3038667,43.8067259 C14.8988,43.4016593 14.8988,42.7453185 15.3038667,42.3402519 Z M4.9334963,25.7476593 L8.60014815,22.0816296 C9.00521481,21.6764593 9.66145185,21.6764593 10.0665185,22.0816296 C10.4716889,22.4866963 10.4716889,23.1429593 10.0665185,23.548 L6.39997037,27.2141333 C6.19743704,27.4166667 5.93205926,27.5179852 5.66678519,27.5179852 C5.40140741,27.5179852 5.13602963,27.4166667 4.9334963,27.2141333 C4.52842963,26.8090667 4.52842963,26.1527259 4.9334963,25.7476593 Z M4.9334963,34.0439556 L8.60014815,30.3779259 C9.00521481,29.9727556 9.66145185,29.9727556 10.0665185,30.3779259 C10.4716889,30.7829926 10.4716889,31.4392556 10.0665185,31.8442963 L6.39997037,35.5104296 C6.19743704,35.712963 5.93205926,35.8142815 5.66678519,35.8142815 C5.40140741,35.8142815 5.13602963,35.712963 4.9334963,35.5104296 C4.52842963,35.105363 4.52842963,34.4490222 4.9334963,34.0439556 Z M4.9334963,42.3402519 L8.60014815,38.6742222 C9.00521481,38.2690519 9.66145185,38.2690519 10.0665185,38.6742222 C10.4716889,39.0793148 10.4716889,39.7355259 10.0665185,40.1405926 L6.39997037,43.8067259 C6.19743704,44.0092593 5.93205926,44.1105778 5.66678519,44.1105778 C5.40140741,44.1105778 5.13602963,44.0092593 4.9334963,43.8067259 C4.52842963,43.4016593 4.52842963,42.7453185 4.9334963,42.3402519 Z" id="Shape"></path>
                        <polygon id="Shape" points="53.9259259 7.25925926 45.6296296 7.25925926 43.5555556 7.25925926 12.4444444 7.25925926 10.3703704 7.25925926 2.07407407 7.25925926 2.07407407 16.5925926 53.9259259 16.5925926"></polygon>
                        <path d="M54.962963,5.18518519 L45.6296296,5.18518519 L45.6296296,0 L43.5555556,0 L43.5555556,5.18518519 L12.4444444,5.18518519 L12.4444444,0 L10.3703704,0 L10.3703704,5.18518519 L1.03703704,5.18518519 C0.464385185,5.18518519 0,5.64905185 0,6.22222222 L0,17.6296296 L0,49.7777778 C0,50.3509481 0.464385185,50.8148148 1.03703704,50.8148148 L54.962963,50.8148148 C55.5356148,50.8148148 56,50.3509481 56,49.7777778 L56,17.6296296 L56,6.22222222 C56,5.64905185 55.5356148,5.18518519 54.962963,5.18518519 Z M2.07407407,7.25925926 L10.3703704,7.25925926 L12.4444444,7.25925926 L43.5555556,7.25925926 L45.6296296,7.25925926 L53.9259259,7.25925926 L53.9259259,16.5925926 L2.07407407,16.5925926 L2.07407407,7.25925926 Z M53.9259259,48.7407407 L2.07407407,48.7407407 L2.07407407,18.6666667 L53.9259259,18.6666667 L53.9259259,48.7407407 Z" id="Shape" fill="#1C4386" fill-rule="nonzero"></path>
                        <path d="M5.66678519,27.5179852 C5.93205926,27.5179852 6.19743704,27.4166667 6.39997037,27.2141333 L10.0665185,23.548 C10.4716889,23.1429333 10.4716889,22.4866963 10.0665185,22.0816296 C9.66145185,21.6764593 9.00521481,21.6764593 8.60014815,22.0816296 L4.9334963,25.7476593 C4.52842963,26.1527259 4.52842963,26.8090667 4.9334963,27.2141333 C5.13602963,27.4166667 5.40140741,27.5179852 5.66678519,27.5179852 Z" id="Shape" fill="#1C4386" fill-rule="nonzero"></path>
                        <path d="M16.0371556,27.5179852 C16.3024296,27.5179852 16.5678074,27.4166667 16.7703407,27.2141333 L20.4368889,23.548 C20.8420593,23.1429333 20.8420593,22.4866963 20.4368889,22.0816296 C20.0318222,21.6764593 19.3755852,21.6764593 18.9705185,22.0816296 L15.3038667,25.7476593 C14.8988,26.1527259 14.8988,26.8090667 15.3038667,27.2141333 C15.5064,27.4166667 15.7717778,27.5179852 16.0371556,27.5179852 Z" id="Shape" fill="#1C4386" fill-rule="nonzero"></path>
                        <path d="M26.4075259,27.5179852 C26.6728,27.5179852 26.9381778,27.4166667 27.1407111,27.2141333 L30.8072593,23.548 C31.2124296,23.1429333 31.2124296,22.4866963 30.8072593,22.0816296 C30.4021926,21.6764593 29.7459556,21.6764593 29.3408889,22.0816296 L25.674237,25.7476593 C25.2691704,26.1527259 25.2691704,26.8090667 25.674237,27.2141333 C25.8767704,27.4166667 26.1421481,27.5179852 26.4075259,27.5179852 Z" id="Shape" fill="#1C4386" fill-rule="nonzero"></path>
                        <path d="M36.7778963,27.5179852 C37.0431704,27.5179852 37.3085481,27.4166667 37.5110815,27.2141333 L41.1776296,23.548 C41.5828,23.1429333 41.5828,22.4866963 41.1776296,22.0816296 C40.772563,21.6764593 40.1163259,21.6764593 39.7112593,22.0816296 L36.0446074,25.7476593 C35.6395407,26.1527259 35.6395407,26.8090667 36.0446074,27.2141333 C36.2471407,27.4166667 36.5125185,27.5179852 36.7778963,27.5179852 Z" id="Shape" fill="#1C4386" fill-rule="nonzero"></path>
                        <path d="M47.1482667,27.5179852 C47.4135407,27.5179852 47.6789185,27.4166667 47.8814519,27.2141333 L51.548,23.548 C51.9531704,23.1429333 51.9531704,22.4866963 51.548,22.0816296 C51.1429333,21.6764593 50.4866963,21.6764593 50.0816296,22.0816296 L46.4149778,25.7476593 C46.0099111,26.1527259 46.0099111,26.8090667 46.4149778,27.2141333 C46.6175111,27.4166667 46.8828889,27.5179852 47.1482667,27.5179852 Z" id="Shape" fill="#1C4386" fill-rule="nonzero"></path>
                        <path d="M5.66678519,35.8142815 C5.93205926,35.8142815 6.19743704,35.712963 6.39997037,35.5104296 L10.0665185,31.8442963 C10.4716889,31.4392296 10.4716889,30.7829926 10.0665185,30.3779259 C9.66145185,29.9727556 9.00521481,29.9727556 8.60014815,30.3779259 L4.9334963,34.0439556 C4.52842963,34.4490222 4.52842963,35.105363 4.9334963,35.5104296 C5.13602963,35.712963 5.40140741,35.8142815 5.66678519,35.8142815 Z" id="Shape" fill="#1C4386" fill-rule="nonzero"></path>
                        <path d="M16.0371556,35.8142815 C16.3024296,35.8142815 16.5678074,35.712963 16.7703407,35.5104296 L20.4368889,31.8442963 C20.8420593,31.4392296 20.8420593,30.7829926 20.4368889,30.3779259 C20.0318222,29.9727556 19.3755852,29.9727556 18.9705185,30.3779259 L15.3038667,34.0439556 C14.8988,34.4490222 14.8988,35.105363 15.3038667,35.5104296 C15.5064,35.712963 15.7717778,35.8142815 16.0371556,35.8142815 Z" id="Shape" fill="#1C4386" fill-rule="nonzero"></path>
                        <path d="M26.4075259,35.8142815 C26.6728,35.8142815 26.9381778,35.712963 27.1407111,35.5104296 L30.8072593,31.8442963 C31.2124296,31.4392296 31.2124296,30.7829926 30.8072593,30.3779259 C30.4021926,29.9727556 29.7459556,29.9727556 29.3408889,30.3779259 L25.674237,34.0439556 C25.2691704,34.4490222 25.2691704,35.105363 25.674237,35.5104296 C25.8767704,35.712963 26.1421481,35.8142815 26.4075259,35.8142815 Z" id="Shape" fill="#1C4386" fill-rule="nonzero"></path>
                        <path d="M36.9037926,33.1848741 L36.0446074,34.0439556 C35.6395407,34.4490222 35.6395407,35.105363 36.0446074,35.5104296 C36.2471407,35.712963 36.5125185,35.8142815 36.7778963,35.8142815 C37.0431704,35.8142815 37.3085481,35.712963 37.5110815,35.5104296 L38.3703704,34.6512444 L39.2296593,35.5104296 C39.4321926,35.712963 39.6975704,35.8142815 39.9628444,35.8142815 C40.2282222,35.8142815 40.4936,35.712963 40.6961333,35.5104296 C41.1012,35.105363 41.1012,34.4490222 40.6961333,34.0439556 L39.8369481,33.1848741 L41.1776296,31.8442963 C41.5828,31.4392296 41.5828,30.7829926 41.1776296,30.3779259 C40.772563,29.9727556 40.1163259,29.9727556 39.7112593,30.3779259 L38.3703704,31.7186074 L37.0294815,30.3779259 C36.6244148,29.9727556 35.9681778,29.9727556 35.5631111,30.3779259 C35.1579407,30.7829926 35.1579407,31.4392556 35.5631111,31.8442963 L36.9037926,33.1848741 Z" id="Shape" fill="#1C4386" fill-rule="nonzero"></path>
                        <path d="M47.1482667,35.8142815 C47.4135407,35.8142815 47.6789185,35.712963 47.8814519,35.5104296 L51.548,31.8442963 C51.9531704,31.4392296 51.9531704,30.7829926 51.548,30.3779259 C51.1429333,29.9727556 50.4866963,29.9727556 50.0816296,30.3779259 L46.4149778,34.0439556 C46.0099111,34.4490222 46.0099111,35.105363 46.4149778,35.5104296 C46.6175111,35.712963 46.8828889,35.8142815 47.1482667,35.8142815 Z" id="Shape" fill="#1C4386" fill-rule="nonzero"></path>
                        <path d="M5.66678519,44.1105778 C5.93205926,44.1105778 6.19743704,44.0092593 6.39997037,43.8067259 L10.0665185,40.1405926 C10.4716889,39.7355259 10.4716889,39.0792889 10.0665185,38.6742222 C9.66145185,38.2690519 9.00521481,38.2690519 8.60014815,38.6742222 L4.9334963,42.3402519 C4.52842963,42.7453185 4.52842963,43.4016593 4.9334963,43.8067259 C5.13602963,44.0092593 5.40140741,44.1105778 5.66678519,44.1105778 Z" id="Shape" fill="#1C4386" fill-rule="nonzero"></path>
                        <path d="M16.0371556,44.1105778 C16.3024296,44.1105778 16.5678074,44.0092593 16.7703407,43.8067259 L20.4368889,40.1405926 C20.8420593,39.7355259 20.8420593,39.0792889 20.4368889,38.6742222 C20.0318222,38.2690519 19.3755852,38.2690519 18.9705185,38.6742222 L15.3038667,42.3402519 C14.8988,42.7453185 14.8988,43.4016593 15.3038667,43.8067259 C15.5064,44.0092593 15.7717778,44.1105778 16.0371556,44.1105778 Z" id="Shape" fill="#1C4386" fill-rule="nonzero"></path>
                        <path d="M26.5334222,41.4811704 L25.674237,42.3402519 C25.2691704,42.7453185 25.2691704,43.4016593 25.674237,43.8067259 C25.8767704,44.0092593 26.1421481,44.1105778 26.4075259,44.1105778 C26.6728,44.1105778 26.9381778,44.0092593 27.1407111,43.8067259 L28,42.9475407 L28.8592889,43.8067259 C29.0618222,44.0092593 29.3272,44.1105778 29.5924741,44.1105778 C29.8578519,44.1105778 30.1232296,44.0092593 30.325763,43.8067259 C30.7308296,43.4016593 30.7308296,42.7453185 30.325763,42.3402519 L29.4665778,41.4811704 L30.8072593,40.1405926 C31.2124296,39.7355259 31.2124296,39.0792889 30.8072593,38.6742222 C30.4021926,38.2690519 29.7459556,38.2690519 29.3408889,38.6742222 L28,40.0149037 L26.6591111,38.6742222 C26.2540444,38.2690519 25.5978074,38.2690519 25.1927407,38.6742222 C24.7875704,39.0793148 24.7875704,39.7355259 25.1927407,40.1405926 L26.5334222,41.4811704 Z" id="Shape" fill="#1C4386" fill-rule="nonzero"></path>
                        <path d="M39.7112593,38.6742222 L36.0446074,42.3402519 C35.6395407,42.7453185 35.6395407,43.4016593 36.0446074,43.8067259 C36.2471407,44.0092593 36.5125185,44.1105778 36.7778963,44.1105778 C37.0431704,44.1105778 37.3085481,44.0092593 37.5110815,43.8067259 L41.1776296,40.1405926 C41.5828,39.7355259 41.5828,39.0792889 41.1776296,38.6742222 C40.772563,38.2690519 40.1163259,38.2690519 39.7112593,38.6742222 Z" id="Shape" fill="#1C4386" fill-rule="nonzero"></path>
                        <path d="M47.1482667,44.1105778 C47.4135407,44.1105778 47.6789185,44.0092593 47.8814519,43.8067259 L51.548,40.1405926 C51.9531704,39.7355259 51.9531704,39.0792889 51.548,38.6742222 C51.1429333,38.2690519 50.4866963,38.2690519 50.0816296,38.6742222 L46.4149778,42.3402519 C46.0099111,42.7453185 46.0099111,43.4016593 46.4149778,43.8067259 C46.6175111,44.0092593 46.8828889,44.1105778 47.1482667,44.1105778 Z" id="Shape" fill="#1C4386" fill-rule="nonzero"></path>
                    </g>
                </g>
            </g>
        </g>
    </g>
</svg>