<?xml version="1.0" encoding="UTF-8"?>
<svg viewBox="0 0 90 90" version="1.1" xmlns="http://www.w3.org/2000/svg" xmlns:xlink="http://www.w3.org/1999/xlink">
    <!-- Generator: Sketch 50.2 (55047) - http://www.bohemiancoding.com/sketch -->
    <title>well-organised</title>
    <desc>Created with Sketch.</desc>
    <defs></defs>
    <g id="Website" stroke="none" stroke-width="1" fill="none" fill-rule="evenodd">
        <g id="01-smile-line-website-main" transform="translate(-501.000000, -1274.000000)">
            <g id="Group-18" transform="translate(0.000000, 1124.000000)">
                <g id="well-organised" transform="translate(501.000000, 150.000000)">
                    <circle id="Oval-2" fill-opacity="0.111158288" fill="#4A90E2" cx="45" cy="45" r="45"></circle>
                    <g id="Group-14" opacity="0.649999976" transform="translate(24.000000, 17.000000)" stroke="#1C4386">
                        <g id="Group-3">
                            <path d="M34.3424269,23.8693028 L28.265471,53.7517277" id="Shape" stroke-width="2.2" stroke-linecap="round" stroke-linejoin="round"></path>
                            <path d="M5.8560533,12.5825596 C5.95523642,12.0414157 6.48109891,11.6242567 7.0437093,11.6514423 L9.67336963,11.7785084 C10.2301108,11.8054104 10.6814387,12.272165 10.6814387,12.8206164 L10.6814387,28.833821 C10.6814387,29.3824594 10.2291919,29.8272187 9.686146,29.8272187 L3.69067226,29.8272187 C3.14098728,29.8272187 2.77465368,29.3946985 2.87496648,28.8473911 L5.8560533,12.5825596 Z" id="Shape" stroke-width="2.2" stroke-linecap="round" stroke-linejoin="round" transform="translate(6.769931, 20.738702) rotate(18.000000) translate(-6.769931, -20.738702) "></path>
                            <path d="M10.752886,32.7770468 L1.51838291,50.6178723 C0.883731106,51.8440788 1.36328093,53.3526025 2.58948742,53.9872543 C3.81569392,54.6219061 5.32421763,54.1423563 5.95886943,52.9161498 L13.8404388,37.6882226" id="Shape" stroke-width="2.2" stroke-linecap="round"></path>
                            <path d="M20.6839896,20.7658464 C22.3637747,22.2917568 25.7233449,25.3435777 25.7233449,25.3435777 C26.2512894,25.8231605 26.9946833,25.9852911 27.6743753,25.7690881 L38.2894304,22.3925479 C39.3420311,22.0577264 39.9239062,20.9329985 39.5890846,19.8803977 C39.2542631,18.827797 38.1295352,18.2459219 37.0769344,18.5807434 L27.5599746,21.6079908 L22.1126995,16.6597067 C21.9104845,16.4760153 21.5060543,16.1086324 21.5060543,16.1086324" id="Shape" stroke-width="2.2"></path>
                            <path d="M16.2431518,32.2612336 L22.3948942,41.2847609 C22.6778903,41.6998666 22.8292552,42.1906057 22.8292552,42.6929994 L22.8292552,52.1438923 C22.8292552,53.5246042 21.7099671,54.6438923 20.3292552,54.6438923 C18.9485434,54.6438923 17.8292552,53.5246042 17.8292552,52.1438923 L17.8292552,43.4641065 L11.4343752,34.0839389 C11.0061969,33.4558764 10.8870225,32.6671234 11.1105328,31.9405958 L16.0865372,15.7659306 C16.6720408,13.862732 21.0930753,15.2292087 22.3593553,16.7659306 L16.2431518,32.2612336 Z" id="Shape" stroke-width="2.2"></path>
                            <circle id="Oval" stroke-width="2.3" stroke-linecap="round" stroke-linejoin="round" cx="22" cy="6" r="6"></circle>
                        </g>
                    </g>
                </g>
            </g>
        </g>
    </g>
</svg>